<svg width="294" height="117" viewBox="0 0 294 117" fill="none" xmlns="http://www.w3.org/2000/svg">
<g clip-path="url(#clip0_486_1753)">
<path d="M16.6094 27.7876H51.3298C53.3163 27.7876 58.2211 29.3144 60.2077 30.1042C85.1536 39.8971 85.5755 75.5761 60.8757 85.8779C49.7652 90.5111 31.693 88.1068 19.3167 88.4578C18.7717 88.4578 16.6094 89.1773 16.6094 88.3174V27.7876Z" fill="white"/>
<path d="M94.9985 66.1167V47.2681H105.072C106.847 47.2681 110.152 49.9357 111.119 51.445C114.899 57.3417 110.697 66.1167 103.789 66.1167H94.981H94.9985ZM99.4814 61.9574H104.123C106.197 61.9574 108.096 58.6053 108.148 56.6924C108.271 51.7609 103.56 50.5499 99.4814 51.094V61.9574Z" fill="white"/>
<path d="M226.355 72.1891C227.99 72.5401 227.375 73.7335 227.481 73.7861C227.902 74.0318 230.838 73.6106 231.647 73.7861C230.258 72.1364 233.282 71.294 233.563 71.5573C233.651 71.645 233.88 73.5053 234.266 73.7335C234.794 74.0669 237.22 73.6106 238.046 73.7861C237.923 74.4355 238.204 77.8051 238.046 77.9455C237.923 78.0508 236.868 77.8226 236.763 77.9455C236.657 78.0683 236.886 79.1038 236.763 79.2266C236.499 79.5074 230.082 79.016 229.08 79.2266C229.573 77.0855 227.832 78.2789 227.481 77.9455C227.393 77.8577 227.498 76.015 227.481 75.5411C227.481 75.155 227.727 74.3477 227.164 74.4355C227.41 75.5762 226.303 76.9276 226.285 77.8402C226.285 77.9806 227.059 80.4025 227.164 80.5078C227.234 80.578 228.447 80.1919 228.905 80.1743C230.188 80.1217 237.888 80.0164 238.222 80.4902C238.521 80.929 238.31 81.8767 238.363 82.4207L235.479 82.5962V86.5625H236.446V84.9655C236.605 84.79 238.574 85.5271 238.661 85.6324C238.802 85.8079 238.257 87.9665 238.081 88.2648C237.554 89.0897 233.264 89.2476 233.264 87.6857V82.4207C232.966 82.7191 232.034 82.3681 231.981 82.4207C231.542 82.9648 232.157 86.0009 229.889 87.8437C228.149 89.2827 227.656 89.0721 226.232 87.3698C228.324 86.2291 229.696 84.983 229.748 82.4207C229.063 83.035 227.604 82.333 227.516 82.4207C227.463 82.4734 227.445 83.3333 227.147 83.8247C226.232 85.3516 225.195 85.1059 223.666 84.6671V89.1423H221.75V72.2066C223.103 72.3997 225.142 71.9434 226.391 72.2066L226.355 72.1891ZM224.914 74.4179C224.826 74.3302 223.947 74.4706 223.631 74.4179V82.7191H225.23C226.057 81.1396 224.017 78.8932 224.017 78.1561C224.017 77.5243 225.16 74.6636 224.896 74.4179H224.914ZM235.796 76.015C235.585 75.8044 230.557 76.015 229.713 76.015C229.643 76.015 229.643 77.2961 229.713 77.2961H235.796C235.796 77.2961 235.849 76.0676 235.796 76.015ZM223.789 83.3684V83.6843C224 83.579 224 83.4737 223.789 83.3684Z" fill="white"/>
<path d="M228.431 48.5493L232.263 48.7073L239.946 58.7634V48.5493H243.796V65.8009L240.28 65.6254L232.263 55.2534V65.8009H228.431V48.5493Z" fill="white"/>
<path d="M128.348 53.2703C128.752 53.9899 133.639 54.9025 134.888 55.5167C141.216 58.6231 137.894 66.6785 130.721 66.4152C129.192 66.3626 124.076 64.8182 123.285 63.5721C122.845 62.8702 125.183 60.4834 125.588 60.4132C125.834 60.3781 128.488 62.1506 129.701 62.3085C131.319 62.5191 134.712 62.449 133.551 60.0622C132.655 58.237 124.955 58.7284 123.935 54.3409C122.054 46.2854 132.708 45.1096 137.419 49.1987C137.577 49.5146 135.767 52.27 135.432 52.3753C134.852 52.5508 131.987 50.4974 129.754 50.8309C128.506 51.0239 127.715 52.1998 128.365 53.3054L128.348 53.2703Z" fill="white"/>
<path d="M158.041 46.3022V53.0063C160.027 51.0232 163.596 50.3914 165.688 52.55C166.004 52.8835 166.989 54.7789 166.989 55.0772V66.0986H162.822V57.3061C162.822 54.5507 158.023 54.7789 158.023 56.6743V66.0986H153.54V46.3022H158.023H158.041Z" fill="white"/>
<path d="M221.064 61.3258C221.345 61.589 222.295 61.3082 222.611 60.7993C223.578 59.2373 222.787 55.6396 221.504 54.3409C219.605 52.3928 215.034 52.5332 213.171 54.4111C210.78 56.8154 211.237 63.8529 215.157 64.5023C216.406 64.7129 219.078 64.1337 219.587 64.2566C220.097 64.3794 220.379 65.5553 220.695 65.9589C213.136 69.9954 206.772 63.2036 209.602 55.4816C212.432 47.7596 227.481 49.0408 225.459 60.1324C225.055 62.3261 222.91 63.853 220.713 63.4318C219.957 63.2914 218.867 62.4139 218.638 62.3963C217.742 62.3437 215.737 64.5725 213.997 62.449C211.606 59.5532 215.439 57.3419 218.163 57.8158C218.462 55.2535 214.964 57.0436 214.366 56.4995C214.296 56.4293 213.979 55.1482 214.138 54.9376C214.735 54.0601 219.394 53.9899 220.238 54.9551C220.379 55.1131 221.047 56.6048 221.047 56.7101C221.047 57.377 220.871 61.1854 221.047 61.3433L221.064 61.3258ZM218.181 59.7287C217.619 59.7638 216.722 59.5532 216.247 59.8867C214.542 61.045 218.462 62.1155 218.181 59.7287Z" fill="white"/>
<path d="M266.192 48.5493V60.2025C266.192 60.2025 266.878 61.4836 267.001 61.624C268.355 63.0807 271.871 63.0631 272.873 61.1151C273.049 60.7816 273.558 58.8511 273.558 58.6054V48.5493H277.391V60.5359C277.391 60.9396 276.459 62.9929 276.178 63.4668C273.928 67.0821 267.37 67.4155 264.294 64.6602C263.538 63.9757 262.026 61.4485 262.026 60.5359V48.5493H266.192Z" fill="white"/>
<path d="M181.07 72.1885V76.6637C182.072 76.7515 182.072 75.8213 182.037 75.0667C183.478 75.8038 184.234 75.1544 183.883 77.0674C183.672 78.173 183.39 78.7697 182.213 78.9277C178.31 79.4542 178.767 77.5763 178.837 74.4349C176.13 74.1014 177.22 74.821 176.605 76.8568C176.288 77.9273 175.655 78.6995 174.987 79.5595H182.195C182.195 79.5595 182.933 79.8754 182.968 79.9105C183.566 80.8933 180.912 84.3857 180.437 85.4387C180.525 85.8774 183.021 86.9831 183.636 86.8953C182.336 91.3881 179.927 87.4043 178.31 87.2639C177.941 87.2288 175.409 89.0013 174.178 89.1242C173.335 89.2119 173.616 88.001 173.405 87.843C173.352 87.8079 172.702 88.1589 172.297 88.1765C171.454 88.2116 170.557 88.0712 169.748 88.1765C169.01 88.2818 168.131 89.2295 167.006 88.8083V82.4201H173.089V86.8953C174.214 86.6847 175.444 86.2284 176.288 85.4562C176.376 85.0526 174.794 83.6661 174.723 82.8413C174.653 82.0164 175.673 82.385 175.638 81.7883C171.981 82.385 174.934 79.9982 173.229 78.5942C172.913 78.5591 173.124 79.226 173.071 79.226H166.988V77.3131H173.071C173.071 77.3131 172.913 77.9975 173.229 77.9449C174.776 76.3829 174.759 74.2594 174.671 72.1885H181.07ZM179.786 81.7707L176.587 81.9287L178.345 83.9996L179.786 81.7707ZM170.838 84.3155H169.239V85.9125H170.838V84.3155Z" fill="white"/>
<path d="M192.215 51.1642C202.921 50.6026 203.308 66.2396 192.76 66.4502C182.212 66.6608 182.071 51.6907 192.215 51.1642ZM191.881 55.0076C187.574 55.8325 188.277 63.2737 193.375 62.5892C197.7 62.0101 196.962 54.0248 191.881 55.0076Z" fill="white"/>
<path d="M175.901 51.1819C186.519 50.7958 186.572 66.2749 176.429 66.4679C166.285 66.661 165.547 51.5505 175.901 51.1819ZM175.55 55.0078C171.541 55.6747 171.735 61.9927 175.497 62.5894C181.351 63.5195 181.122 54.0952 175.55 55.0078Z" fill="white"/>
<path d="M134.518 88.4748C134.518 88.4748 134.184 88.9486 133.815 89.0364C131.6 89.6331 132.127 88.6678 132.127 86.8777C131.266 87.4744 131.547 89.1592 130.035 88.1764C128.523 87.1937 129.806 86.7549 130.14 85.7019C130.773 83.7539 131.178 80.7528 130.879 78.7346C130.791 78.1203 129.138 77.3481 129.279 76.5408C129.314 76.3127 132.074 74.0838 132.619 73.4696C134.166 71.7321 133.182 71.1179 136.293 71.8725C136.329 71.8901 135.959 72.3815 136.012 72.4692C136.153 72.6798 139.809 74.6279 139.827 74.9262C139.212 76.8743 138.983 76.3127 137.753 76.3478C137.524 76.3478 137.717 76.9269 137.102 77.0147C135.819 77.1902 134.307 76.8216 133.076 76.8041C132.584 76.8041 132.285 76.6461 132.127 77.313H138.684C139.423 77.313 139.423 83.3853 138.684 83.3853H132.76V83.7012H138.684C139.511 83.7012 139.053 87.7201 139.159 88.4923C137.823 88.7029 135.731 88.2115 134.518 88.4923V88.4748ZM135.959 75.0491L134.834 74.1014L134.36 74.8911L135.959 75.0491ZM136.926 79.2084C136.03 79.226 135.116 79.1733 134.201 79.2084C133.815 79.2084 133.006 78.9627 133.094 79.5243C133.99 79.5068 134.905 79.5594 135.819 79.5243C136.205 79.5243 137.014 79.77 136.926 79.2084ZM136.926 81.1214C136.03 81.1389 135.116 81.0863 134.201 81.1214C133.815 81.1214 133.006 80.8757 133.094 81.4373C133.99 81.4197 134.905 81.4724 135.819 81.4373C136.205 81.4373 137.014 81.683 136.926 81.1214ZM136.926 85.5966C135.379 85.7897 133.569 84.7893 134.043 86.8777C135.59 86.6847 137.401 87.685 136.926 85.5966Z" fill="white"/>
<path d="M121.245 71.5391V76.6461H128.277C128.313 77.1551 128.418 79.2084 127.803 79.2084H121.878C122.494 82.5078 124.99 85.5966 128.26 86.5618C127.416 89.7033 126.432 89.3874 124.146 87.6324C122.81 86.6145 121.773 85.2631 120.859 83.8767C120.49 83.3151 120.261 81.7356 119.611 82.578C119.241 83.0694 118.872 84.2803 118.292 85.035C117.571 85.9827 113.932 89.44 112.913 88.9311C112.772 88.8609 111.348 87.4218 111.313 87.3165C111.084 86.79 111.524 86.8777 111.717 86.7724C115.11 84.8068 117.097 83.2624 118.028 79.1733H111.787C111.172 79.1733 111.278 77.1375 111.313 76.611H118.345V71.9778C118.345 71.3109 120.683 71.504 121.228 71.504L121.245 71.5391Z" fill="white"/>
<path d="M205.717 80.1745C205.611 80.2798 205.787 81.9821 205.717 82.4033C205.224 82.3156 203.748 82.5788 203.502 82.3682C203.203 82.1225 202.957 79.0162 203.291 78.5423C203.642 78.0509 204.697 78.4546 204.767 78.0685C204.961 76.9628 204.011 73.3651 204.468 72.8561C204.592 72.7157 207.932 71.6101 208.125 71.6276C208.406 71.6452 209.233 72.8737 209.233 72.979C209.18 73.6459 207.123 73.4528 207 74.0846C208.231 74.2601 209.127 73.9793 210.2 73.4528C210.34 72.8737 209.549 73.3475 209.549 72.979C209.549 71.575 211.008 72.1366 211.588 72.0664C212.116 71.9962 212.397 71.3118 213.399 72.0137C214.067 72.4876 213.012 72.6806 213.118 73.2422C213.258 73.9969 214.155 73.6634 212.749 75.0499C214.155 74.8042 213.944 75.6817 213.065 76.489C214.278 76.8575 213.575 77.4367 213.065 78.244H216.265L214.032 77.9281V76.0151L216.282 75.8572L214.032 75.6992V74.1022L216.599 73.9442L214.032 73.7863V72.1892H218.831L218.515 78.2615C218.814 78.3317 219.71 78.1738 219.798 78.2615C219.956 78.4019 219.675 81.7715 219.798 82.4209H217.548V80.192C216.071 80.5079 206.121 79.7708 205.717 80.192V80.1745ZM209.233 76.9804C210.868 76.7873 209.672 76.2257 209.672 75.8572C209.672 75.4886 210.657 75.2429 209.391 74.4181C209.356 76.331 208.635 75.5939 207 75.6992C207.158 76.4539 208.916 75.7519 209.215 76.0502C209.321 76.1555 209.215 76.7347 209.233 76.9804ZM212.116 74.4181C211.94 74.2426 210.164 74.734 210.516 75.0499C211.289 75.7519 212.59 74.8919 212.116 74.4181ZM212.432 78.244C212.133 77.384 211.325 77.384 210.832 78.086L212.432 78.244ZM209.865 77.9281C209.127 78.1211 207.404 77.5069 206.982 78.244C207.721 78.0509 209.408 78.6652 209.865 77.9281Z" fill="white"/>
<path d="M146.138 51.1817C147.527 51.0764 152.291 52.1118 152.291 53.8317C152.291 54.2353 150.059 56.5344 149.883 56.5344C149.795 56.5344 149.109 55.7446 148.67 55.5165C143.695 53.0595 141.409 59.9215 144.943 62.1153C147.527 63.7299 149.338 61.2202 150.164 61.3782C150.674 61.4835 152.028 63.3262 152.608 63.7299C146.666 70.1707 136.434 64.2037 139.563 55.8148C140.53 53.1999 143.431 51.3747 146.156 51.1817H146.138Z" fill="white"/>
<path d="M260.109 48.5493V52.0593H254.993V65.8009H250.827V52.0593H245.711V48.5493H260.109Z" fill="white"/>
<path d="M156.124 85.5973C158.093 82.14 157.162 77.6823 157.443 73.8213C158.884 73.8213 162.119 71.6627 163.051 71.5925C163.314 71.5749 164.985 72.8034 165.072 72.9789C165.319 73.4703 163.772 73.9617 163.367 74.1548C162.646 74.5058 159.799 75.2604 159.658 75.4008C159.464 75.629 159.728 77.1032 159.623 77.6121H165.389C165.336 79.4549 166.004 80.1568 163.789 79.841V89.1073H161.222V79.841H159.623C159.781 83.2281 158.92 86.3344 157.056 89.1073C155.667 88.6686 155.017 88.0017 155.456 86.5626C156.159 86.1765 155.878 85.9834 156.089 85.5973H156.124Z" fill="white"/>
<path d="M155.473 86.5624C154.489 87.124 154.419 85.9306 153.557 85.5972V89.1072H151.5L151.307 85.9131C149.707 87.7032 149.356 88.7737 147.475 86.3869C148.811 85.527 149.76 84.474 150.674 83.1928L148.107 83.0349V80.7885H151.307V79.8408H147.791C147.844 77.998 147.176 77.2961 149.391 77.5944C149.338 76.752 148.899 76.1553 149.391 75.3656C147.598 75.6464 148.16 74.9444 148.107 73.4526H151.307C150.287 71.9609 151.641 71.3291 153.047 71.5221C153.417 71.5748 153.381 73.242 153.592 73.4175C153.856 73.6457 156.142 73.3298 156.757 73.4526C157.144 75.8921 156.3 75.0497 155.878 75.4182C155.649 75.6288 155.579 77.1557 155.157 77.5944C157.583 77.3663 157.108 77.647 157.073 79.8408H153.557V80.7885H156.757V83.0349H153.874C154.313 84.0352 156.599 84.3862 156.106 85.5972C156.089 85.6674 155.702 85.8078 155.473 86.5624ZM153.557 75.3831H151.008C151.448 78.507 153.118 78.507 153.557 75.3831Z" fill="white"/>
<path d="M206.367 46.3022H202.201V66.0986H206.367V46.3022Z" fill="white"/>
<path d="M108.763 80.8062V89.1073C108.025 89.0195 107.11 89.2652 106.425 89.1073C106.161 89.0546 106.337 88.5281 105.739 88.4579C104.526 88.3 100.518 88.3 99.305 88.4579C98.7073 88.5281 98.8831 89.0546 98.6194 89.1073C97.9338 89.2652 97.0196 89.0195 96.2812 89.1073V80.8062H108.763ZM106.196 83.035H98.8303V85.9132H106.196V83.035Z" fill="white"/>
<path d="M206.666 82.4029C206.666 81.7886 206.455 80.7708 207.193 80.5251C207.721 80.3496 214.401 80.3496 215.139 80.49C215.649 80.5777 216.704 81.4026 216.581 81.9115L214.014 83.684H219.781V85.9129H213.065C212.801 85.9129 214.102 89.3351 210.024 89.1421C208.441 89.0719 208.6 88.4752 207.949 87.194C209.479 87.0185 210.92 87.9311 210.516 85.9129H203.642C202.992 85.9129 202.992 83.684 203.642 83.684H210.358C210.463 83.684 211.518 82.5433 212.116 82.7188V82.4029H206.683H206.666Z" fill="white"/>
<path d="M157.355 28.7877C157.759 29.051 159.922 36.8432 160.291 38.0014C160.748 37.9664 160.801 37.5276 160.941 37.2117C161.504 35.9832 163.332 29.1914 163.789 28.8755C164.088 28.6824 164.563 28.6473 164.897 28.7526C165.653 29.0159 167.288 35.7902 167.815 37.0362C167.973 37.4048 167.815 37.8259 168.448 37.668C169.01 37.5276 170.768 29.8758 171.454 28.9106C171.77 28.4718 172.649 28.8053 173.089 28.7175C172.579 30.1917 169.468 40.3531 168.94 40.7041C168.641 40.8972 168.167 40.9323 167.833 40.827C166.954 40.5286 165.055 32.052 164.598 31.9116C163.93 31.701 164.176 32.2802 164.035 32.6136C163.596 33.7368 161.557 40.5813 161.205 40.827C160.976 40.9849 160.203 40.8972 159.939 40.7217C159.429 40.3882 155.931 30.2093 155.79 29.1914C155.685 28.4192 157.091 28.6122 157.337 28.7702L157.355 28.7877Z" fill="white"/>
<path d="M198.667 71.5395V77.6118H202.499V79.9811L198.649 80.1566V89.107H196.083V80.1566C195.133 79.9811 192.303 80.6129 191.969 79.6301C191.02 76.787 194.307 77.6996 196.083 77.5943V71.522H198.649L198.667 71.5395Z" fill="white"/>
<path d="M105.564 76.9797L103.964 74.5929C104.439 74.2244 105.283 73.3118 105.881 73.6101C106.408 73.8734 110.451 78.2082 110.645 78.7874C110.768 79.1735 109.274 80.1212 109.168 80.1387C108.061 80.4546 107.955 78.9453 107.568 78.8751C107.076 78.7698 106.092 79.2086 105.406 79.2261C102.031 79.3139 98.6552 79.191 95.315 79.8579C93.979 76.6287 95.0513 77.7168 96.7566 76.032C97.5301 75.2774 99.6045 71.7498 99.8331 71.6094C100.29 71.3462 102.47 71.9955 102.294 72.6273C101.925 74.0313 99.6045 75.7512 98.8134 76.9797H105.529H105.564Z" fill="white"/>
<path d="M200.602 39.7564C200.426 41.0025 199.459 42.6522 198.228 43.126C196.998 43.5999 192.409 43.635 192.005 42.2661C191.407 40.318 194.572 42.1432 195.662 42.1608C198.07 42.2134 199.16 40.9674 199.019 38.6157C196.98 40.5462 194.132 40.7919 192.304 38.4577C188.876 34.0878 194.958 29.1563 198.861 32.8593L199.512 31.5957C199.846 31.4378 200.619 31.8239 200.619 32.0696C200.619 34.3335 200.918 37.6504 200.619 39.7389L200.602 39.7564ZM195.398 32.9471C191.478 33.5964 192.427 39.5985 196.857 38.5806C200.426 37.7557 199.16 32.3504 195.398 32.9471Z" fill="white"/>
<path d="M103.296 29.7351L102.523 31.297C101.186 29.1735 95.3499 29.7175 96.7563 32.5782C97.7935 34.7193 104.263 32.9818 103.665 38.1766C103.384 40.7214 100.448 41.1075 98.3736 40.8793C97.3892 40.774 94.0666 39.6684 95.0159 38.475C95.7894 37.5097 97.0552 39.0892 98.2857 39.3876C100.184 39.8439 102.751 39.4051 102.013 36.9481C101.415 35.0176 95.1741 35.86 95.0159 32.0868C94.8577 28.3136 100.817 27.6291 103.331 29.7351H103.296Z" fill="white"/>
<path d="M146.191 71.8555V87.9839C146.191 88.8965 142.2 89.4756 141.743 89.072C141.62 88.9667 141.55 87.3696 141.075 87.0186C141.146 86.2464 143.941 87.4047 143.941 86.3868V71.8555H146.173H146.191Z" fill="white"/>
<path d="M135.643 37.0534C135.977 38.9664 137.682 39.9667 139.581 39.5455C140.354 39.37 141.145 38.3346 141.251 38.3346C141.356 38.3346 142.077 39.0541 142.024 39.4051C141.708 41.3882 135.713 41.7568 134.395 38.4574C132.109 32.7537 139.106 29.0331 141.866 33.5434C142.218 34.1226 143.237 37.0359 142.2 37.0359H135.643V37.0534ZM141.075 35.7723C140.337 31.8937 136.153 31.999 135.643 35.7723H141.075Z" fill="white"/>
<path d="M180.437 40.8797C179.312 40.8446 178.591 41.3009 178.837 39.9144C176.939 41.7221 172.544 41.1956 172.421 38.1594C172.298 35.1233 176.569 34.6845 178.837 35.4567C178.943 32.2275 175.55 33.2981 173.405 33.5438C172.772 31.5782 176.271 31.4904 177.589 31.7712C178.679 31.9994 180.455 33.1752 180.455 34.3511V40.8972L180.437 40.8797ZM175.216 36.4746C174.442 36.7028 173.88 37.6856 174.003 38.4753C174.231 39.9846 177.659 40.0197 178.468 38.7737C180.068 36.2816 177.062 35.9481 175.216 36.4746Z" fill="white"/>
<path d="M118.995 40.8797C117.87 40.8446 117.149 41.3009 117.395 39.9144C115.497 41.7221 111.102 41.1956 110.979 38.1594C110.856 35.1233 115.128 34.6845 117.395 35.4567C117.501 32.2275 114.108 33.2981 111.963 33.5438C111.33 31.5782 114.829 31.4904 116.147 31.7712C117.237 31.9994 119.013 33.1752 119.013 34.3511V40.8972L118.995 40.8797ZM113.791 36.4746C113.018 36.7028 112.455 37.6856 112.578 38.4753C112.807 39.9846 116.235 40.0197 117.044 38.7737C118.644 36.2816 115.637 35.9481 113.791 36.4746Z" fill="white"/>
<path d="M182.037 32.0872C182.143 31.7362 182.775 31.4905 183.162 31.6133L183.795 32.8945C184.885 31.2623 187.698 31.1746 189.051 32.4382C189.245 32.6137 190.036 33.9299 190.036 34.0177V40.8797H188.436V34.3336C188.436 33.8773 186.731 32.9471 186.08 32.9822C185.289 33.0173 183.637 34.2634 183.637 34.9654V40.8797H182.037C182.459 38.6157 181.474 34.0528 182.037 32.0872Z" fill="white"/>
<path d="M147.158 38.6514C148.723 37.616 149.197 32.9477 150.182 31.9298C151.114 30.9821 151.87 31.4559 151.465 32.895C151.008 34.5798 148.705 40.2309 147.844 41.7402C147.369 42.6001 146.719 43.3197 145.717 43.4601C144.345 43.6356 142.06 43.4425 143.607 42.0034C149.918 43.2846 143.378 34.65 142.675 32.1053C143.08 31.491 143.923 31.4033 144.433 31.9473C145.172 32.7195 146.596 37.3703 147.141 38.669L147.158 38.6514Z" fill="white"/>
<path d="M120.929 32.087C121.034 31.736 121.667 31.4903 122.054 31.6131L122.687 32.8943C124.075 30.3671 128.928 31.9115 128.928 34.3334V40.8795H127.328V34.6493C127.328 32.438 122.528 32.789 122.528 34.6493V40.8795H120.929C121.351 38.6155 120.366 34.0526 120.929 32.087Z" fill="white"/>
<path d="M122.195 55.5693H113.879V59.7287H122.195V55.5693Z" fill="white"/>
<path d="M191.635 82.4033V88.1597C190.475 88.2826 189.051 87.9842 187.926 88.1422C187.522 88.1948 186.854 89.3707 185.553 88.8091V82.4209H191.635V82.4033ZM189.403 84.3163H187.487V86.2292H189.403V84.3163Z" fill="white"/>
<path d="M107.481 38.8095C107.762 39.8099 109.274 39.6168 110.03 39.2834C110.698 41.4245 107.27 41.2841 106.356 40.2311C105.266 38.9675 106.197 33.527 105.863 33.2111C105.6 32.9478 104.299 33.8429 104.562 32.4038C104.773 31.3508 105.758 31.8247 105.881 31.421C106.022 30.9647 105.705 29.2097 105.863 29.0518H107.463C107.551 29.5256 107.34 31.4912 107.463 31.6141C107.586 31.7369 109.555 31.5263 110.03 31.6141V33.0356C109.977 33.4568 107.463 33.0882 107.463 33.2286C107.463 34.4747 107.217 37.9145 107.463 38.8271L107.481 38.8095Z" fill="white"/>
<path d="M142.358 74.1021H140.125V84.6496H142.358V74.1021Z" fill="white"/>
<path d="M130.844 40.8803V28.104C132.022 28.0338 132.32 28.0338 132.461 29.2096C132.672 30.9822 132.742 38.476 132.461 40.0906C132.285 41.0383 131.723 40.933 130.861 40.8803H130.844Z" fill="white"/>
<path d="M192.268 74.7337C192.268 74.7337 192.637 76.6466 192.11 76.6466H184.585V74.7337C185.588 74.9443 192.004 74.4529 192.268 74.7337Z" fill="white"/>
<path d="M173.721 74.7339H166.039V76.6468H173.721V74.7339Z" fill="white"/>
<path d="M173.088 79.8408H167.005V81.7538H173.088V79.8408Z" fill="white"/>
<path d="M173.088 72.1885H167.005V74.1014H173.088V72.1885Z" fill="white"/>
<path d="M191.635 72.1885H185.553V74.1014H191.635V72.1885Z" fill="white"/>
<path d="M191.635 77.2959H185.553V79.2088H191.635V77.2959Z" fill="white"/>
<path d="M191.635 79.8408H185.553V81.7538H191.635V79.8408Z" fill="white"/>
</g>
<defs>
<clipPath id="clip0_486_1753">
<rect width="293" height="117" fill="white" transform="translate(0.5)"/>
</clipPath>
</defs>
</svg>
