<svg width="37" height="36" viewBox="0 0 37 36" fill="none" xmlns="http://www.w3.org/2000/svg">
<path d="M26.3926 3.9248C27.4607 3.9248 28.2669 3.92519 28.9072 3.97754C29.5483 4.02996 30.0305 4.13515 30.4502 4.34961L30.7178 4.5C31.3264 4.8748 31.8226 5.41027 32.1504 6.0498L32.2256 6.21094C32.3901 6.59397 32.4766 7.03298 32.5225 7.59375C32.5748 8.23374 32.5752 9.03928 32.5752 10.1074V25.8926C32.5752 26.9607 32.5748 27.7669 32.5225 28.4072C32.4766 28.9684 32.3903 29.4077 32.2256 29.79L32.1504 29.9502C31.8238 30.5906 31.3272 31.1261 30.7178 31.5L30.4502 31.6504C30.0292 31.8648 29.5471 31.97 28.9062 32.0225C28.2663 32.0748 27.4607 32.0752 26.3926 32.0752H10.6074C9.53928 32.0752 8.73308 32.0748 8.09277 32.0225C7.53156 31.9766 7.09229 31.8903 6.70996 31.7256L6.5498 31.6504C5.90935 31.3238 5.37394 30.8272 5 30.2178L4.84961 29.9502C4.6352 29.5292 4.52996 29.0471 4.47754 28.4062C4.42519 27.7663 4.4248 26.9607 4.4248 25.8926V10.1074C4.4248 9.03928 4.42519 8.23308 4.47754 7.59277C4.52996 6.95166 4.63515 6.46954 4.84961 6.0498L5 5.78223C5.3748 5.17362 5.91027 4.67742 6.5498 4.34961L6.71094 4.27441C7.09397 4.10987 7.53298 4.02341 8.09375 3.97754C8.73374 3.92519 9.53928 3.9248 10.6074 3.9248H26.3926ZM26.3994 13.7266H24.4404C23.9786 13.7266 23.6496 13.8255 23.4209 14.0137C23.2215 14.1779 23.089 14.4172 23.0146 14.7412L22.9863 14.8857C22.9557 15.0735 22.9404 15.2844 22.9404 15.5186V16.8438H26.376L26.3643 16.9297L25.8984 20.1885L25.8887 20.2529H22.9326V30.6572H26.3965C27.4924 30.6572 28.2277 30.6559 28.7969 30.6104L29.1631 30.5703C29.4823 30.5243 29.672 30.4602 29.8115 30.3887L29.9814 30.2939C30.3687 30.0565 30.6842 29.7156 30.8916 29.3086C30.9858 29.1223 31.0669 28.8464 31.1123 28.2939L31.1396 27.833C31.1598 27.334 31.1611 26.7138 31.1611 25.8945V10.1084C31.1611 9.28619 31.1598 8.66711 31.1396 8.16895L31.1123 7.70801C31.0791 7.29219 31.0253 7.03411 30.96 6.85254L30.8916 6.69336C30.684 6.28683 30.3683 5.94663 29.9814 5.70898L29.8115 5.61328C29.672 5.54175 29.4822 5.47865 29.1631 5.43262L28.7969 5.39258C28.2279 5.34453 27.4889 5.34473 26.3965 5.34473H10.6211L9.22363 5.35059C9.0275 5.3536 8.84785 5.35772 8.68164 5.36426L8.2207 5.3916C7.80491 5.42476 7.54616 5.47867 7.36426 5.54395L7.20508 5.6123C6.79851 5.81991 6.45837 6.13555 6.2207 6.52246L6.125 6.69238C6.05433 6.83204 5.99082 7.0218 5.94434 7.34082L5.9043 7.70703C5.85751 8.27609 5.85742 9.01503 5.85742 10.1074V25.8926C5.85742 26.7147 5.8572 27.334 5.87695 27.832L5.9043 28.293L5.94336 28.6592C5.9894 28.9789 6.0534 29.168 6.125 29.3076L6.2207 29.4775C6.45813 29.8647 6.79818 30.1804 7.20508 30.3877L7.36426 30.4561C7.48546 30.4996 7.64061 30.5386 7.85352 30.5693L8.21973 30.6084V30.6094L8.68164 30.6367C9.18048 30.657 9.801 30.6572 10.6201 30.6572H19.5195V20.2529H16.2607V16.8438H19.5195V15.1621C19.5196 13.49 19.9267 12.2747 20.6943 11.4775C21.4627 10.6799 22.5808 10.3135 23.9746 10.3135C25.2734 10.3135 25.9736 10.408 26.3145 10.4541H26.3174L26.3057 10.5156L26.3174 10.4551L26.3379 10.458L26.3994 10.4697V13.7266Z" fill="white" stroke="white" stroke-width="0.15"/>
</svg>
