<svg width="37" height="36" viewBox="0 0 37 36" fill="none" xmlns="http://www.w3.org/2000/svg">
<path d="M9.284 10.2598C9.11263 10.1674 8.92022 10.121 8.72557 10.1253C8.53092 10.1295 8.3407 10.1842 8.17351 10.2839C8.00632 10.3837 7.86788 10.5252 7.77174 10.6945C7.67559 10.8638 7.62503 11.0551 7.625 11.2498V25.4998C7.625 25.7982 7.74353 26.0843 7.9545 26.2953C8.16548 26.5063 8.45163 26.6248 8.75 26.6248C9.04837 26.6248 9.33452 26.5063 9.5455 26.2953C9.75647 26.0843 9.875 25.7982 9.875 25.4998V13.1338L17.966 17.4898C18.299 17.6698 18.701 17.6698 19.034 17.4898L27.125 13.1338V25.4998C27.125 25.7982 27.2435 26.0843 27.4545 26.2953C27.6655 26.5063 27.9516 26.6248 28.25 26.6248C28.5484 26.6248 28.8345 26.5063 29.0455 26.2953C29.2565 26.0843 29.375 25.7982 29.375 25.4998V11.2498C29.375 11.0551 29.3244 10.8638 29.2283 10.6945C29.1321 10.5252 28.9937 10.3837 28.8265 10.2839C28.6593 10.1842 28.4691 10.1295 28.2744 10.1253C28.0798 10.121 27.8874 10.1674 27.716 10.2598L18.5 15.2218L9.284 10.2598Z" fill="white"/>
<path fill-rule="evenodd" clip-rule="evenodd" d="M26.4652 5.58306C21.1657 5.10903 15.8346 5.10903 10.5352 5.58306L8.25816 5.78556C7.07209 5.89147 5.95635 6.39409 5.09112 7.21223C4.22589 8.03037 3.6617 9.11627 3.48966 10.2946C2.74238 15.4044 2.74238 20.5957 3.48966 25.7056C3.66208 26.8838 4.22662 27.9696 5.09212 28.7874C5.95762 29.6053 7.07354 30.1075 8.25966 30.2131L10.5337 30.4171C15.8347 30.8911 21.1657 30.8911 26.4667 30.4171L28.7422 30.2131C29.928 30.1072 31.0436 29.6048 31.9088 28.787C32.774 27.9691 33.3383 26.8836 33.5107 25.7056C34.2579 20.5957 34.2579 15.4044 33.5107 10.2946C33.3385 9.11604 32.7741 8.02996 31.9086 7.21179C31.0431 6.39362 29.927 5.89115 28.7407 5.78556L26.4652 5.58306ZM10.7362 7.82406C15.9028 7.36105 21.1005 7.36105 26.2672 7.82406L28.5427 8.02806C29.2248 8.08865 29.8666 8.37742 30.3644 8.84774C30.8622 9.31805 31.187 9.94245 31.2862 10.6201C32.0019 15.514 32.0019 20.4861 31.2862 25.3801C31.187 26.0577 30.8622 26.6821 30.3644 27.1524C29.8666 27.6227 29.2248 27.9115 28.5427 27.9721L26.2672 28.1761C21.1012 28.6381 15.9022 28.6381 10.7362 28.1761L8.46066 27.9721C7.7785 27.9115 7.13669 27.6227 6.63889 27.1524C6.14108 26.6821 5.81635 26.0577 5.71716 25.3801C5.00144 20.4861 5.00144 15.514 5.71716 10.6201C5.81635 9.94245 6.14108 9.31805 6.63889 8.84774C7.13669 8.37742 7.7785 8.08865 8.46066 8.02806L10.7362 7.82406Z" fill="white"/>
</svg>
