<svg width="37" height="36" viewBox="0 0 37 36" fill="none" xmlns="http://www.w3.org/2000/svg">
<path d="M28.1557 31.4057H8.84473C7.85017 31.4057 6.89634 31.0106 6.19308 30.3074C5.48981 29.6041 5.09473 28.6503 5.09473 27.6557V8.34473C5.09473 7.35017 5.48981 6.39634 6.19308 5.69308C6.89634 4.98981 7.85017 4.59473 8.84473 4.59473H28.1557C29.1503 4.59473 30.1041 4.98981 30.8074 5.69308C31.5106 6.39634 31.9057 7.35017 31.9057 8.34473V27.6557C31.9057 28.6503 31.5106 29.6041 30.8074 30.3074C30.1041 31.0106 29.1503 31.4057 28.1557 31.4057ZM8.84473 6.09473C8.24799 6.09473 7.67569 6.33178 7.25374 6.75374C6.83178 7.17569 6.59473 7.74799 6.59473 8.34473V27.6557C6.59473 28.2525 6.83178 28.8248 7.25374 29.2467C7.67569 29.6687 8.24799 29.9057 8.84473 29.9057H28.1557C28.7525 29.9057 29.3248 29.6687 29.7467 29.2467C30.1687 28.8248 30.4057 28.2525 30.4057 27.6557V8.34473C30.4057 7.74799 30.1687 7.17569 29.7467 6.75374C29.3248 6.33178 28.7525 6.09473 28.1557 6.09473H8.84473Z" fill="white"/>
<path d="M18.5002 24.891C17.1373 24.8895 15.8054 24.4839 14.6729 23.7256C13.5403 22.9673 12.6581 21.8902 12.1376 20.6306C11.6171 19.3709 11.4818 17.9852 11.7487 16.6487C12.0156 15.3121 12.6728 14.0847 13.6372 13.1215C14.6016 12.1584 15.8298 11.5028 17.1668 11.2377C18.5037 10.9725 19.8892 11.1096 21.1482 11.6318C22.4071 12.1539 23.483 13.0376 24.2399 14.1711C24.9967 15.3046 25.4005 16.637 25.4002 18C25.3979 19.8284 24.6698 21.5811 23.3761 22.8732C22.0824 24.1652 20.3287 24.891 18.5002 24.891ZM18.5002 12.6C17.4343 12.6014 16.3928 12.9188 15.5072 13.5119C14.6215 14.105 13.9315 14.9473 13.5243 15.9323C13.1171 16.9173 13.0109 18.001 13.2192 19.0463C13.4275 20.0917 13.941 21.0518 14.6947 21.8055C15.4484 22.5592 16.4085 23.0727 17.4539 23.281C18.4992 23.4893 19.5829 23.3831 20.5679 22.9759C21.5529 22.5687 22.3952 21.8787 22.9883 20.993C23.5814 20.1074 23.8988 19.0659 23.9002 18C23.9002 16.5678 23.3313 15.1943 22.3186 14.1816C21.3059 13.1689 19.9324 12.6 18.5002 12.6Z" fill="white"/>
<path d="M26.3 11.8573C27.1906 11.8573 27.9125 11.1354 27.9125 10.2448C27.9125 9.35426 27.1906 8.63232 26.3 8.63232C25.4094 8.63232 24.6875 9.35426 24.6875 10.2448C24.6875 11.1354 25.4094 11.8573 26.3 11.8573Z" fill="white"/>
</svg>
