<svg width="118" height="18" viewBox="0 0 118 18" fill="none" xmlns="http://www.w3.org/2000/svg">
<path d="M5.296 13.872C4.25067 13.872 3.328 13.6267 2.528 13.136C1.73867 12.6347 1.12 11.92 0.672 10.992C0.224 10.064 0 8.95467 0 7.664C0 6.384 0.224 5.29067 0.672 4.384C1.12 3.47733 1.73867 2.784 2.528 2.304C3.328 1.824 4.25067 1.584 5.296 1.584C6.352 1.584 7.27467 1.82933 8.064 2.32C8.85333 2.8 9.472 3.49333 9.92 4.4C10.368 5.296 10.592 6.384 10.592 7.664C10.592 8.95467 10.368 10.064 9.92 10.992C9.472 11.92 8.85333 12.6347 8.064 13.136C7.27467 13.6267 6.352 13.872 5.296 13.872ZM5.296 11.824C5.88267 11.824 6.38933 11.6533 6.816 11.312C7.25333 10.9707 7.58933 10.4907 7.824 9.872C8.05867 9.24267 8.176 8.50667 8.176 7.664C8.176 6.82133 8.05867 6.10133 7.824 5.504C7.58933 4.896 7.25333 4.432 6.816 4.112C6.38933 3.78133 5.88267 3.616 5.296 3.616C4.70933 3.616 4.19733 3.78133 3.76 4.112C3.33333 4.432 3.00267 4.896 2.768 5.504C2.544 6.10133 2.432 6.82133 2.432 7.664C2.432 8.50667 2.544 9.24267 2.768 9.872C3.00267 10.4907 3.33333 10.9707 3.76 11.312C4.19733 11.6533 4.70933 11.824 5.296 11.824Z" fill="white"/>
<path d="M14.3125 17.088V4.688H16.2325L16.4085 5.616H16.4565C16.8298 5.296 17.2405 5.024 17.6885 4.8C18.1472 4.576 18.6165 4.464 19.0965 4.464C19.8325 4.464 20.4618 4.656 20.9845 5.04C21.5072 5.41333 21.9072 5.94133 22.1845 6.624C22.4725 7.296 22.6165 8.096 22.6165 9.024C22.6165 10.048 22.4352 10.9227 22.0725 11.648C21.7098 12.3733 21.2352 12.928 20.6485 13.312C20.0725 13.6853 19.4592 13.872 18.8085 13.872C18.4245 13.872 18.0405 13.7867 17.6565 13.616C17.2832 13.4453 16.9258 13.2053 16.5845 12.896L16.6645 14.352V17.088H14.3125ZM18.2965 11.936C18.6485 11.936 18.9685 11.8347 19.2565 11.632C19.5445 11.4187 19.7738 11.0987 19.9445 10.672C20.1152 10.2453 20.2005 9.70667 20.2005 9.056C20.2005 8.49067 20.1365 8.01067 20.0085 7.616C19.8805 7.21067 19.6885 6.90667 19.4325 6.704C19.1765 6.50133 18.8405 6.4 18.4245 6.4C18.1258 6.4 17.8325 6.47467 17.5445 6.624C17.2672 6.77333 16.9738 7.00267 16.6645 7.312V11.264C16.9525 11.52 17.2352 11.696 17.5125 11.792C17.7898 11.888 18.0512 11.936 18.2965 11.936Z" fill="white"/>
<path d="M30.1134 13.872C29.2814 13.872 28.5294 13.6853 27.8574 13.312C27.1854 12.9387 26.6467 12.4 26.2414 11.696C25.8467 10.992 25.6494 10.1493 25.6494 9.168C25.6494 8.44267 25.7614 7.792 25.9854 7.216C26.22 6.64 26.5347 6.14933 26.9294 5.744C27.3347 5.328 27.7827 5.01333 28.2734 4.8C28.7747 4.576 29.292 4.464 29.8254 4.464C30.6467 4.464 31.3347 4.65067 31.8894 5.024C32.444 5.38667 32.86 5.89333 33.1374 6.544C33.4254 7.184 33.5694 7.92 33.5694 8.752C33.5694 8.96533 33.5587 9.17333 33.5374 9.376C33.516 9.568 33.4894 9.72267 33.4574 9.84H27.9374C28.0014 10.32 28.1454 10.7253 28.3694 11.056C28.5934 11.3867 28.8814 11.6373 29.2334 11.808C29.5854 11.968 29.9854 12.048 30.4334 12.048C30.796 12.048 31.1374 12 31.4574 11.904C31.7774 11.7973 32.1027 11.6427 32.4334 11.44L33.2334 12.88C32.796 13.1787 32.3054 13.4187 31.7614 13.6C31.2174 13.7813 30.668 13.872 30.1134 13.872ZM27.8894 8.256H31.5534C31.5534 7.65867 31.4147 7.184 31.1374 6.832C30.8707 6.46933 30.444 6.288 29.8574 6.288C29.548 6.288 29.2547 6.36267 28.9774 6.512C28.7 6.65067 28.4654 6.86933 28.2734 7.168C28.0814 7.456 27.9534 7.81867 27.8894 8.256Z" fill="white"/>
<path d="M37.1063 13.648V4.688H39.0262L39.2022 5.872H39.2502C39.6449 5.488 40.0769 5.15733 40.5462 4.88C41.0156 4.60267 41.5543 4.464 42.1623 4.464C43.1329 4.464 43.8369 4.784 44.2743 5.424C44.7116 6.05333 44.9302 6.93333 44.9302 8.064V13.648H42.5783V8.352C42.5783 7.65867 42.4769 7.17333 42.2743 6.896C42.0822 6.61867 41.7623 6.48 41.3143 6.48C40.9516 6.48 40.6316 6.56533 40.3542 6.736C40.0876 6.90667 39.7889 7.15733 39.4582 7.488V13.648H37.1063Z" fill="white"/>
<path d="M49.1483 13.648V1.792H51.5163V6.48H55.9963V1.792H58.3483V13.648H55.9963V8.528H51.5163V13.648H49.1483Z" fill="white"/>
<path d="M67.6736 13.872C66.927 13.872 66.2283 13.744 65.5776 13.488C64.927 13.2213 64.351 12.8267 63.8496 12.304C63.359 11.7813 62.9696 11.1413 62.6816 10.384C62.4043 9.62667 62.2656 8.75733 62.2656 7.776C62.2656 6.79467 62.4096 5.92533 62.6976 5.168C62.9856 4.4 63.3803 3.74933 63.8816 3.216C64.3936 2.68267 64.9803 2.27733 65.6416 2C66.3136 1.72267 67.023 1.584 67.7696 1.584C68.527 1.584 69.199 1.73867 69.7856 2.048C70.383 2.34667 70.8683 2.69867 71.2416 3.104L70.0096 4.608C69.711 4.30933 69.3803 4.06933 69.0176 3.888C68.6656 3.70667 68.2656 3.616 67.8176 3.616C67.2203 3.616 66.6816 3.78133 66.2016 4.112C65.7323 4.432 65.3643 4.896 65.0976 5.504C64.831 6.112 64.6976 6.84267 64.6976 7.696C64.6976 8.56 64.8203 9.30133 65.0656 9.92C65.3216 10.528 65.679 10.9973 66.1376 11.328C66.607 11.6587 67.151 11.824 67.7696 11.824C68.2816 11.824 68.735 11.7173 69.1296 11.504C69.535 11.28 69.8923 10.9973 70.2016 10.656L71.4656 12.128C70.975 12.704 70.415 13.1413 69.7856 13.44C69.1563 13.728 68.4523 13.872 67.6736 13.872Z" fill="white"/>
<path d="M74.9576 13.648V1.792H77.3256V13.648H74.9576Z" fill="white"/>
<path d="M80.9429 4.128C81.2629 3.968 81.5295 3.776 81.7429 3.552C81.9669 3.328 82.1322 3.104 82.2389 2.88C82.3562 2.64533 82.4149 2.44267 82.4149 2.272C82.3829 2.29333 82.3349 2.31467 82.2709 2.336C82.2069 2.34667 82.1375 2.352 82.0629 2.352C81.7322 2.352 81.4655 2.24 81.2629 2.016C81.0602 1.792 80.9589 1.51467 80.9589 1.184C80.9589 0.874667 81.0655 0.602667 81.2789 0.368C81.5029 0.122667 81.8122 0 82.2069 0C82.6122 0 82.9482 0.165333 83.2149 0.496C83.4815 0.826667 83.6149 1.23733 83.6149 1.728C83.6149 2.25067 83.5082 2.72533 83.2949 3.152C83.0922 3.57867 82.8202 3.94667 82.4789 4.256C82.1482 4.55467 81.7909 4.78933 81.4069 4.96L80.9429 4.128Z" fill="white"/>
<path d="M98.6709 13.648V12.288C99.6949 11.3067 100.591 10.4213 101.359 9.632C102.127 8.832 102.724 8.10667 103.151 7.456C103.578 6.79467 103.791 6.18133 103.791 5.616C103.791 5.22133 103.722 4.88533 103.583 4.608C103.444 4.33067 103.242 4.11733 102.975 3.968C102.719 3.81867 102.399 3.744 102.015 3.744C101.588 3.744 101.194 3.86667 100.831 4.112C100.479 4.35733 100.154 4.64 99.8549 4.96L98.5429 3.68C99.0975 3.09333 99.6629 2.65067 100.239 2.352C100.826 2.04267 101.519 1.888 102.319 1.888C103.066 1.888 103.716 2.03733 104.271 2.336C104.836 2.63467 105.274 3.056 105.583 3.6C105.892 4.13333 106.047 4.76267 106.047 5.488C106.047 6.14933 105.86 6.82667 105.487 7.52C105.124 8.21333 104.639 8.91733 104.031 9.632C103.434 10.336 102.778 11.0613 102.063 11.808C102.362 11.7653 102.692 11.7333 103.055 11.712C103.418 11.68 103.738 11.664 104.015 11.664H106.607V13.648H98.6709Z" fill="white"/>
<path d="M113.452 13.872C112.823 13.872 112.263 13.7973 111.772 13.648C111.282 13.4987 110.844 13.3013 110.46 13.056C110.076 12.8107 109.735 12.544 109.436 12.256L110.524 10.752C110.748 10.976 110.988 11.1787 111.244 11.36C111.511 11.5413 111.799 11.6853 112.108 11.792C112.428 11.8987 112.77 11.952 113.132 11.952C113.538 11.952 113.895 11.872 114.204 11.712C114.524 11.552 114.775 11.3227 114.956 11.024C115.138 10.7253 115.228 10.3627 115.228 9.936C115.228 9.296 115.042 8.80533 114.668 8.464C114.306 8.112 113.826 7.936 113.228 7.936C112.887 7.936 112.594 7.984 112.348 8.08C112.103 8.176 111.804 8.336 111.452 8.56L110.38 7.856L110.7 2.112H117.036V4.08H112.732L112.508 6.592C112.743 6.48533 112.972 6.40533 113.196 6.352C113.42 6.29867 113.666 6.272 113.932 6.272C114.594 6.272 115.202 6.4 115.756 6.656C116.311 6.912 116.754 7.30667 117.084 7.84C117.415 8.37333 117.58 9.05067 117.58 9.872C117.58 10.7147 117.383 11.4347 116.988 12.032C116.604 12.6293 116.098 13.088 115.468 13.408C114.85 13.7173 114.178 13.872 113.452 13.872Z" fill="white"/>
</svg>
