<svg width="108" height="19" viewBox="0 0 108 19" fill="none" xmlns="http://www.w3.org/2000/svg">
<path d="M5.296 14.8281C4.25067 14.8281 3.328 14.5827 2.528 14.0921C1.73867 13.5907 1.12 12.8761 0.672 11.9481C0.224 11.0201 0 9.91072 0 8.62006C0 7.34005 0.224 6.24672 0.672 5.34005C1.12 4.43339 1.73867 3.74005 2.528 3.26005C3.328 2.78006 4.25067 2.54006 5.296 2.54006C6.352 2.54006 7.27467 2.78539 8.064 3.27606C8.85333 3.75605 9.472 4.44939 9.92 5.35606C10.368 6.25206 10.592 7.34005 10.592 8.62006C10.592 9.91072 10.368 11.0201 9.92 11.9481C9.472 12.8761 8.85333 13.5907 8.064 14.0921C7.27467 14.5827 6.352 14.8281 5.296 14.8281ZM5.296 12.7801C5.88267 12.7801 6.38933 12.6094 6.816 12.2681C7.25333 11.9267 7.58933 11.4467 7.824 10.8281C8.05867 10.1987 8.176 9.46272 8.176 8.62006C8.176 7.77739 8.05867 7.05739 7.824 6.46006C7.58933 5.85206 7.25333 5.38805 6.816 5.06806C6.38933 4.73739 5.88267 4.57205 5.296 4.57205C4.70933 4.57205 4.19733 4.73739 3.76 5.06806C3.33333 5.38805 3.00267 5.85206 2.768 6.46006C2.544 7.05739 2.432 7.77739 2.432 8.62006C2.432 9.46272 2.544 10.1987 2.768 10.8281C3.00267 11.4467 3.33333 11.9267 3.76 12.2681C4.19733 12.6094 4.70933 12.7801 5.296 12.7801Z" fill="white"/>
<path d="M14.3125 18.0441V5.64406H16.2325L16.4085 6.57205H16.4565C16.8298 6.25206 17.2405 5.98006 17.6885 5.75605C18.1472 5.53206 18.6165 5.42006 19.0965 5.42006C19.8325 5.42006 20.4618 5.61206 20.9845 5.99605C21.5072 6.36939 21.9072 6.89739 22.1845 7.58006C22.4725 8.25206 22.6165 9.05205 22.6165 9.98005C22.6165 11.0041 22.4352 11.8787 22.0725 12.6041C21.7098 13.3294 21.2352 13.8841 20.6485 14.2681C20.0725 14.6414 19.4592 14.8281 18.8085 14.8281C18.4245 14.8281 18.0405 14.7427 17.6565 14.5721C17.2832 14.4014 16.9258 14.1614 16.5845 13.8521L16.6645 15.3081V18.0441H14.3125ZM18.2965 12.8921C18.6485 12.8921 18.9685 12.7907 19.2565 12.5881C19.5445 12.3747 19.7738 12.0547 19.9445 11.6281C20.1152 11.2014 20.2005 10.6627 20.2005 10.0121C20.2005 9.44672 20.1365 8.96672 20.0085 8.57206C19.8805 8.16672 19.6885 7.86272 19.4325 7.66006C19.1765 7.45739 18.8405 7.35606 18.4245 7.35606C18.1258 7.35606 17.8325 7.43072 17.5445 7.58006C17.2672 7.72939 16.9738 7.95872 16.6645 8.26805V12.2201C16.9525 12.4761 17.2352 12.6521 17.5125 12.7481C17.7898 12.8441 18.0512 12.8921 18.2965 12.8921Z" fill="white"/>
<path d="M30.1134 14.8281C29.2814 14.8281 28.5294 14.6414 27.8574 14.2681C27.1854 13.8947 26.6467 13.3561 26.2414 12.6521C25.8467 11.9481 25.6494 11.1054 25.6494 10.1241C25.6494 9.39872 25.7614 8.74805 25.9854 8.17206C26.22 7.59606 26.5347 7.10539 26.9294 6.70006C27.3347 6.28405 27.7827 5.96939 28.2734 5.75605C28.7747 5.53206 29.292 5.42006 29.8254 5.42006C30.6467 5.42006 31.3347 5.60672 31.8894 5.98005C32.444 6.34272 32.86 6.84939 33.1374 7.50005C33.4254 8.14006 33.5694 8.87606 33.5694 9.70806C33.5694 9.92139 33.5587 10.1294 33.5374 10.3321C33.516 10.5241 33.4894 10.6787 33.4574 10.7961H27.9374C28.0014 11.2761 28.1454 11.6814 28.3694 12.0121C28.5934 12.3427 28.8814 12.5934 29.2334 12.7641C29.5854 12.9241 29.9854 13.0041 30.4334 13.0041C30.796 13.0041 31.1374 12.9561 31.4574 12.8601C31.7774 12.7534 32.1027 12.5987 32.4334 12.3961L33.2334 13.8361C32.796 14.1347 32.3054 14.3747 31.7614 14.5561C31.2174 14.7374 30.668 14.8281 30.1134 14.8281ZM27.8894 9.21206H31.5534C31.5534 8.61472 31.4147 8.14006 31.1374 7.78805C30.8707 7.42539 30.444 7.24406 29.8574 7.24406C29.548 7.24406 29.2547 7.31872 28.9774 7.46806C28.7 7.60672 28.4654 7.82539 28.2734 8.12405C28.0814 8.41206 27.9534 8.77472 27.8894 9.21206Z" fill="white"/>
<path d="M37.1063 14.6041V5.64406H39.0262L39.2022 6.82805H39.2502C39.6449 6.44406 40.0769 6.11339 40.5462 5.83605C41.0156 5.55872 41.5543 5.42006 42.1623 5.42006C43.1329 5.42006 43.8369 5.74006 44.2743 6.38006C44.7116 7.00939 44.9302 7.88939 44.9302 9.02006V14.6041H42.5783V9.30805C42.5783 8.61472 42.4769 8.12939 42.2743 7.85206C42.0822 7.57472 41.7623 7.43606 41.3143 7.43606C40.9516 7.43606 40.6316 7.52139 40.3542 7.69206C40.0876 7.86272 39.7889 8.11339 39.4582 8.44406V14.6041H37.1063Z" fill="white"/>
<path d="M49.1483 14.6041V2.74805H51.5163V7.43606H55.9963V2.74805H58.3483V14.6041H55.9963V9.48405H51.5163V14.6041H49.1483Z" fill="white"/>
<path d="M67.6736 14.8281C66.927 14.8281 66.2283 14.7001 65.5776 14.4441C64.927 14.1774 64.351 13.7827 63.8496 13.2601C63.359 12.7374 62.9696 12.0974 62.6816 11.3401C62.4043 10.5827 62.2656 9.71339 62.2656 8.73206C62.2656 7.75072 62.4096 6.88139 62.6976 6.12405C62.9856 5.35605 63.3803 4.70539 63.8816 4.17206C64.3936 3.63872 64.9803 3.23339 65.6416 2.95605C66.3136 2.67872 67.023 2.54006 67.7696 2.54006C68.527 2.54006 69.199 2.69472 69.7856 3.00406C70.383 3.30272 70.8683 3.65472 71.2416 4.06005L70.0096 5.56406C69.711 5.26539 69.3803 5.02539 69.0176 4.84406C68.6656 4.66272 68.2656 4.57205 67.8176 4.57205C67.2203 4.57205 66.6816 4.73739 66.2016 5.06806C65.7323 5.38805 65.3643 5.85206 65.0976 6.46006C64.831 7.06806 64.6976 7.79872 64.6976 8.65206C64.6976 9.51606 64.8203 10.2574 65.0656 10.8761C65.3216 11.4841 65.679 11.9534 66.1376 12.2841C66.607 12.6147 67.151 12.7801 67.7696 12.7801C68.2816 12.7801 68.735 12.6734 69.1296 12.4601C69.535 12.2361 69.8923 11.9534 70.2016 11.6121L71.4656 13.0841C70.975 13.6601 70.415 14.0974 69.7856 14.3961C69.1563 14.6841 68.4523 14.8281 67.6736 14.8281Z" fill="white"/>
<path d="M74.9576 14.6041V2.74805H77.3256V14.6041H74.9576Z" fill="white"/>
<path d="M80.9429 5.08405C81.2629 4.92406 81.5295 4.73205 81.7429 4.50805C81.9669 4.28405 82.1322 4.06006 82.2389 3.83605C82.3562 3.60139 82.4149 3.39872 82.4149 3.22806C82.3829 3.24939 82.3349 3.27072 82.2709 3.29206C82.2069 3.30272 82.1375 3.30805 82.0629 3.30805C81.7322 3.30805 81.4655 3.19605 81.2629 2.97205C81.0602 2.74805 80.9589 2.47072 80.9589 2.14005C80.9589 1.83072 81.0655 1.55872 81.2789 1.32405C81.5029 1.07872 81.8122 0.956055 82.2069 0.956055C82.6122 0.956055 82.9482 1.12139 83.2149 1.45205C83.4815 1.78272 83.6149 2.19339 83.6149 2.68405C83.6149 3.20672 83.5082 3.68139 83.2949 4.10806C83.0922 4.53472 82.8202 4.90272 82.4789 5.21206C82.1482 5.51072 81.7909 5.74539 81.4069 5.91605L80.9429 5.08405Z" fill="white"/>
<path d="M88.128 14.6041V13.2441C89.152 12.2627 90.048 11.3774 90.816 10.5881C91.584 9.78805 92.1813 9.06272 92.608 8.41206C93.0347 7.75072 93.248 7.13739 93.248 6.57205C93.248 6.17739 93.1787 5.84139 93.04 5.56406C92.9013 5.28672 92.6987 5.07339 92.432 4.92406C92.176 4.77472 91.856 4.70006 91.472 4.70006C91.0453 4.70006 90.6507 4.82272 90.288 5.06806C89.936 5.31339 89.6107 5.59606 89.312 5.91605L88 4.63605C88.5547 4.04939 89.12 3.60672 89.696 3.30805C90.2827 2.99872 90.976 2.84406 91.776 2.84406C92.5227 2.84406 93.1733 2.99339 93.728 3.29206C94.2933 3.59072 94.7307 4.01206 95.04 4.55606C95.3493 5.08939 95.504 5.71872 95.504 6.44405C95.504 7.10539 95.3173 7.78272 94.944 8.47606C94.5813 9.16939 94.096 9.87339 93.488 10.5881C92.8907 11.2921 92.2347 12.0174 91.52 12.7641C91.8187 12.7214 92.1493 12.6894 92.512 12.6681C92.8747 12.6361 93.1947 12.6201 93.472 12.6201H96.064V14.6041H88.128Z" fill="white"/>
<path d="M102.91 14.8281C102.28 14.8281 101.72 14.7534 101.229 14.6041C100.739 14.4547 100.301 14.2574 99.9175 14.0121C99.5335 13.7667 99.1922 13.5001 98.8935 13.2121L99.9815 11.7081C100.205 11.9321 100.446 12.1347 100.701 12.3161C100.968 12.4974 101.256 12.6414 101.565 12.7481C101.885 12.8547 102.227 12.9081 102.59 12.9081C102.995 12.9081 103.352 12.8281 103.661 12.6681C103.981 12.5081 104.232 12.2787 104.413 11.9801C104.595 11.6814 104.686 11.3187 104.686 10.8921C104.686 10.2521 104.499 9.76139 104.125 9.42006C103.763 9.06806 103.283 8.89206 102.686 8.89206C102.344 8.89206 102.051 8.94005 101.805 9.03605C101.56 9.13205 101.261 9.29206 100.91 9.51606L99.8375 8.81206L100.158 3.06806H106.493V5.03605H102.189L101.965 7.54806C102.2 7.44139 102.429 7.36139 102.653 7.30805C102.877 7.25472 103.123 7.22806 103.389 7.22806C104.051 7.22806 104.659 7.35606 105.214 7.61206C105.768 7.86806 106.211 8.26272 106.541 8.79606C106.872 9.32939 107.037 10.0067 107.037 10.8281C107.037 11.6707 106.84 12.3907 106.446 12.9881C106.062 13.5854 105.555 14.0441 104.925 14.3641C104.307 14.6734 103.635 14.8281 102.91 14.8281Z" fill="white"/>
</svg>
