<svg width="223" height="49" viewBox="0 0 223 49" fill="none" xmlns="http://www.w3.org/2000/svg">
<g clip-path="url(#clip0_953_3279)">
<path d="M156.087 13.9787V18.8067H155.037V13.9787H153.626V12.957H157.497V13.9787H156.087Z" fill="white"/>
<path d="M160.171 18.8235V18.461C159.909 18.7412 159.663 18.873 159.204 18.873C158.744 18.873 158.433 18.7576 158.186 18.494C157.973 18.2633 157.858 17.9173 157.858 17.5383C157.858 16.8627 158.285 16.3024 159.204 16.3024H160.139V16.0882C160.139 15.6268 159.925 15.4126 159.4 15.4126C159.023 15.4126 158.843 15.5115 158.646 15.7587L158.022 15.0996C158.416 14.6382 158.793 14.5063 159.45 14.5063C160.549 14.5063 161.139 15.0172 161.139 16.0223V18.84H160.171V18.8235ZM160.155 17.011H159.368C159.007 17.011 158.81 17.1922 158.81 17.4888C158.81 17.7854 158.99 17.9832 159.384 17.9832C159.663 17.9832 159.827 17.9502 160.007 17.7854C160.106 17.6866 160.155 17.5053 160.155 17.2417V17.011Z" fill="white"/>
<path d="M162.566 13.7976V12.9243H163.583V13.7976H162.566ZM162.583 18.8234V14.5391H163.567V18.8234H162.583Z" fill="white"/>
<path d="M169.013 18.8233H168.193L167.373 16.1374L166.553 18.8233H165.732L164.519 14.5391H165.568L166.208 17.192L167.012 14.5391H167.734L168.538 17.192L169.177 14.5391H170.211L169.013 18.8233Z" fill="white"/>
<path d="M173.196 18.8235V18.461C172.934 18.7412 172.688 18.873 172.228 18.873C171.769 18.873 171.457 18.7576 171.211 18.494C170.998 18.2633 170.883 17.9173 170.883 17.5383C170.883 16.8627 171.31 16.3024 172.228 16.3024H173.163V16.0882C173.163 15.6268 172.95 15.4126 172.425 15.4126C172.048 15.4126 171.868 15.5115 171.671 15.7587L171.047 15.0996C171.441 14.6382 171.818 14.5063 172.475 14.5063C173.574 14.5063 174.164 15.0172 174.164 16.0223V18.84H173.196V18.8235ZM173.18 17.011H172.392C172.032 17.011 171.835 17.1922 171.835 17.4888C171.835 17.7854 172.015 17.9832 172.409 17.9832C172.688 17.9832 172.852 17.9502 173.032 17.7854C173.131 17.6866 173.18 17.5053 173.18 17.2417V17.011Z" fill="white"/>
<path d="M177.905 18.8234V16.2364C177.905 15.6597 177.56 15.4619 177.248 15.4619C176.937 15.4619 176.592 15.6597 176.592 16.2364V18.8234H175.608V14.5392H176.576V14.9346C176.838 14.638 177.199 14.4897 177.56 14.4897C177.954 14.4897 178.265 14.6216 178.495 14.8687C178.807 15.2148 178.905 15.6102 178.905 16.0881V18.8234H177.921H177.905Z" fill="white"/>
<path d="M157.087 28.6934L156.776 27.6553H154.856L154.528 28.6934H153.429L155.398 22.8438H156.218L158.186 28.6934H157.087ZM155.824 24.5574L155.135 26.6831H156.48L155.824 24.5574Z" fill="white"/>
<path d="M160.45 28.743C159.827 28.743 159.269 28.6771 158.761 28.1333L159.401 27.4412C159.729 27.7873 160.155 27.8367 160.45 27.8367C160.795 27.8367 161.139 27.7213 161.139 27.3918C161.139 27.1776 161.041 27.0293 160.729 26.9963L160.106 26.9304C159.401 26.8645 158.958 26.5185 158.958 25.7275C158.958 24.8377 159.679 24.3599 160.483 24.3599C161.09 24.3599 161.615 24.4752 161.992 24.8542L161.385 25.5133C161.156 25.2991 160.811 25.2332 160.467 25.2332C160.073 25.2332 159.909 25.4309 159.909 25.6451C159.909 25.7934 159.975 25.9747 160.319 26.0076L160.943 26.0736C161.73 26.156 162.124 26.6009 162.124 27.3259C162.124 28.2651 161.385 28.7265 160.45 28.7265V28.743Z" fill="white"/>
<path d="M164.584 28.743C163.961 28.743 163.403 28.6771 162.895 28.1333L163.534 27.4412C163.862 27.7873 164.289 27.8367 164.584 27.8367C164.929 27.8367 165.273 27.7213 165.273 27.3918C165.273 27.1776 165.175 27.0293 164.863 26.9963L164.24 26.9304C163.534 26.8645 163.091 26.5185 163.091 25.7275C163.091 24.8377 163.813 24.3599 164.617 24.3599C165.224 24.3599 165.749 24.4752 166.126 24.8542L165.519 25.5133C165.29 25.2991 164.945 25.2332 164.601 25.2332C164.207 25.2332 164.043 25.4309 164.043 25.6451C164.043 25.7934 164.108 25.9747 164.453 26.0076L165.076 26.0736C165.864 26.156 166.257 26.6009 166.257 27.3259C166.257 28.2651 165.519 28.7265 164.584 28.7265V28.743Z" fill="white"/>
<path d="M170.194 28.2157C169.948 28.4958 169.555 28.743 168.964 28.743C168.373 28.743 167.98 28.4958 167.75 28.2157C167.389 27.8202 167.307 27.3259 167.307 26.5514C167.307 25.777 167.406 25.2991 167.75 24.8872C167.996 24.607 168.39 24.3599 168.964 24.3599C169.538 24.3599 169.948 24.607 170.194 24.8872C170.555 25.2826 170.637 25.777 170.637 26.5514C170.637 27.3259 170.539 27.8202 170.194 28.2157ZM169.423 25.5133C169.308 25.398 169.161 25.3321 168.964 25.3321C168.767 25.3321 168.619 25.398 168.505 25.5133C168.308 25.7275 168.275 26.1065 168.275 26.5514C168.275 26.9963 168.291 27.3753 168.505 27.5895C168.619 27.7049 168.767 27.7708 168.964 27.7708C169.161 27.7708 169.308 27.7049 169.423 27.5895C169.62 27.3753 169.653 26.9963 169.653 26.5514C169.653 26.1065 169.637 25.744 169.423 25.5133Z" fill="white"/>
<path d="M173.525 28.743C172.737 28.743 171.753 28.2816 171.753 26.5514C171.753 24.8212 172.737 24.3599 173.525 24.3599C174.066 24.3599 174.476 24.5411 174.821 24.9366L174.148 25.6616C173.951 25.4309 173.771 25.3321 173.508 25.3321C173.279 25.3321 173.098 25.4309 172.95 25.6122C172.803 25.8099 172.737 26.1065 172.737 26.5514C172.737 26.9963 172.803 27.2929 172.95 27.5071C173.098 27.6884 173.279 27.7873 173.508 27.7873C173.771 27.7873 173.935 27.6884 174.148 27.4577L174.821 28.1663C174.476 28.5617 174.066 28.743 173.525 28.743Z" fill="white"/>
<path d="M175.969 23.6678V22.7944H176.986V23.6678H175.969ZM175.985 28.6935V24.4093H176.969V28.6935H175.985Z" fill="white"/>
<path d="M180.463 28.6937V28.3312C180.201 28.6113 179.955 28.7431 179.496 28.7431C179.036 28.7431 178.725 28.6278 178.478 28.3641C178.265 28.1334 178.15 27.7874 178.15 27.4084C178.15 26.7328 178.577 26.1726 179.496 26.1726H180.431V25.9583C180.431 25.497 180.217 25.2827 179.692 25.2827C179.315 25.2827 179.135 25.3816 178.938 25.6288L178.314 24.9697C178.708 24.5083 179.085 24.3765 179.742 24.3765C180.841 24.3765 181.431 24.8873 181.431 25.8924V28.7101H180.463V28.6937ZM180.447 26.8811H179.66C179.299 26.8811 179.102 27.0624 179.102 27.359C179.102 27.6556 179.282 27.8533 179.676 27.8533C179.955 27.8533 180.119 27.8203 180.299 27.6556C180.398 27.5567 180.447 27.3754 180.447 27.1118V26.8811Z" fill="white"/>
<path d="M184.105 28.6937C183.301 28.6937 182.957 28.084 182.957 27.4743V25.3487H182.547V24.5413H182.957V23.2725H183.941V24.5413H184.63V25.3487H183.941V27.4084C183.941 27.6556 184.04 27.7874 184.286 27.7874H184.647V28.6937H184.105Z" fill="white"/>
<path d="M185.894 23.6678V22.7944H186.911V23.6678H185.894ZM185.91 28.6935V24.4093H186.894V28.6935H185.91Z" fill="white"/>
<path d="M191.11 28.2157C190.864 28.4958 190.47 28.743 189.879 28.743C189.289 28.743 188.895 28.4958 188.666 28.2157C188.305 27.8202 188.223 27.3259 188.223 26.5514C188.223 25.777 188.321 25.2991 188.666 24.8872C188.912 24.607 189.305 24.3599 189.879 24.3599C190.454 24.3599 190.864 24.607 191.11 24.8872C191.471 25.2826 191.553 25.777 191.553 26.5514C191.553 27.3259 191.471 27.8202 191.11 28.2157ZM190.339 25.5133C190.224 25.398 190.076 25.3321 189.879 25.3321C189.683 25.3321 189.535 25.398 189.42 25.5133C189.223 25.7275 189.191 26.1065 189.191 26.5514C189.191 26.9963 189.207 27.3753 189.42 27.5895C189.535 27.7049 189.683 27.7708 189.879 27.7708C190.076 27.7708 190.224 27.7049 190.339 27.5895C190.536 27.3753 190.568 26.9963 190.568 26.5514C190.568 26.1065 190.552 25.744 190.339 25.5133Z" fill="white"/>
<path d="M195.178 28.6935V26.1065C195.178 25.5298 194.833 25.3321 194.522 25.3321C194.21 25.3321 193.866 25.5298 193.866 26.1065V28.6935H192.881V24.4093H193.849V24.8048C194.112 24.5082 194.473 24.3599 194.833 24.3599C195.227 24.3599 195.539 24.4917 195.768 24.7389C196.08 25.0849 196.179 25.4804 196.179 25.9582V28.6935H195.194H195.178Z" fill="white"/>
<path d="M156.677 38.0858C156.431 38.3659 156.037 38.6131 155.447 38.6131C154.856 38.6131 154.463 38.3659 154.233 38.0858C153.872 37.6903 153.79 37.196 153.79 36.4215C153.79 35.6471 153.888 35.1692 154.233 34.7573C154.479 34.4772 154.873 34.23 155.447 34.23C156.021 34.23 156.431 34.4772 156.677 34.7573C157.038 35.1527 157.12 35.6471 157.12 36.4215C157.12 37.196 157.038 37.6903 156.677 38.0858ZM155.906 35.3834C155.791 35.2681 155.644 35.2022 155.447 35.2022C155.25 35.2022 155.102 35.2681 154.988 35.3834C154.791 35.5976 154.758 35.9766 154.758 36.4215C154.758 36.8664 154.774 37.2454 154.988 37.4596C155.102 37.575 155.25 37.6409 155.447 37.6409C155.644 37.6409 155.791 37.575 155.906 37.4596C156.103 37.2454 156.136 36.8664 156.136 36.4215C156.136 35.9766 156.119 35.6141 155.906 35.3834Z" fill="white"/>
<path d="M159.548 35.2186V38.5636H158.564V35.2186H158.154V34.4112H158.564V33.8839C158.564 33.2742 158.908 32.6646 159.712 32.6646H160.27V33.5708H159.876C159.647 33.5708 159.532 33.7027 159.532 33.9498V34.4112H160.254V35.2186H159.532H159.548Z" fill="white"/>
<path d="M165.421 38.6132C164.847 38.6132 164.354 38.399 163.961 37.9705C163.731 37.7234 163.583 37.4268 163.518 37.0972C163.452 36.7677 163.419 36.2898 163.419 35.6472C163.419 35.0045 163.452 34.5267 163.518 34.1971C163.583 33.8676 163.715 33.571 163.961 33.3238C164.354 32.8954 164.847 32.6812 165.421 32.6812C166.454 32.6812 167.225 33.3403 167.406 34.5267H166.339C166.225 34.0323 165.929 33.7028 165.421 33.7028C165.142 33.7028 164.912 33.8016 164.748 33.9994C164.535 34.2465 164.486 34.5102 164.486 35.6472C164.486 36.7841 164.535 37.0478 164.748 37.295C164.912 37.4927 165.142 37.5916 165.421 37.5916C165.929 37.5916 166.225 37.262 166.339 36.7677H167.406C167.225 37.9541 166.454 38.6132 165.421 38.6132Z" fill="white"/>
<path d="M171.359 38.0858C171.113 38.3659 170.72 38.6131 170.129 38.6131C169.538 38.6131 169.145 38.3659 168.915 38.0858C168.554 37.6903 168.472 37.196 168.472 36.4215C168.472 35.6471 168.571 35.1692 168.915 34.7573C169.161 34.4772 169.555 34.23 170.129 34.23C170.703 34.23 171.113 34.4772 171.359 34.7573C171.72 35.1527 171.802 35.6471 171.802 36.4215C171.802 37.196 171.704 37.6903 171.359 38.0858ZM170.588 35.3834C170.473 35.2681 170.326 35.2022 170.129 35.2022C169.932 35.2022 169.785 35.2681 169.67 35.3834C169.473 35.5976 169.44 35.9766 169.44 36.4215C169.44 36.8664 169.456 37.2454 169.67 37.4596C169.785 37.575 169.932 37.6409 170.129 37.6409C170.326 37.6409 170.473 37.575 170.588 37.4596C170.785 37.2454 170.818 36.8664 170.818 36.4215C170.818 35.9766 170.802 35.6141 170.588 35.3834Z" fill="white"/>
<path d="M177.707 38.5638V35.9768C177.707 35.4 177.363 35.2023 177.051 35.2023C176.74 35.2023 176.395 35.4 176.395 35.9603V38.5803H175.411V35.9932C175.411 35.4165 175.066 35.2188 174.755 35.2188C174.443 35.2188 174.099 35.4165 174.099 35.9932V38.5803H173.114V34.296H174.082V34.6915C174.345 34.4114 174.705 34.2466 175.066 34.2466C175.509 34.2466 175.87 34.4114 176.116 34.7904C176.444 34.4114 176.805 34.2466 177.297 34.2466C177.691 34.2466 178.052 34.3784 178.265 34.6256C178.577 34.9716 178.692 35.3671 178.692 35.8449V38.5803H177.707V38.5638Z" fill="white"/>
<path d="M183.039 38.218C182.826 38.4487 182.465 38.597 182.071 38.597C181.677 38.597 181.366 38.4816 181.12 38.1686V40.1129H180.135V34.2633H181.087V34.6588C181.366 34.3292 181.661 34.2139 182.071 34.2139C182.465 34.2139 182.809 34.3622 183.039 34.5929C183.433 35.0213 183.449 35.7463 183.449 36.3889C183.449 37.0316 183.449 37.7731 183.039 38.2015V38.218ZM181.792 35.1861C181.202 35.1861 181.12 35.7134 181.12 36.4054C181.12 37.0975 181.202 37.6413 181.792 37.6413C182.383 37.6413 182.465 37.114 182.465 36.4054C182.465 35.6969 182.383 35.1861 181.792 35.1861Z" fill="white"/>
<path d="M187.042 38.564V38.1686C186.779 38.4652 186.418 38.6135 186.058 38.6135C185.664 38.6135 185.352 38.4816 185.123 38.2345C184.811 37.8884 184.712 37.493 184.712 37.0151V34.2798H185.697V36.8668C185.697 37.4435 186.041 37.6413 186.353 37.6413C186.665 37.6413 187.009 37.4435 187.009 36.8668V34.2798H187.993V38.564H187.025H187.042Z" fill="white"/>
<path d="M190.716 38.5638C189.912 38.5638 189.568 37.9541 189.568 37.3444V35.2188H189.158V34.4114H189.568V33.1426H190.552V34.4114H191.241V35.2188H190.552V37.2785C190.552 37.5257 190.651 37.6575 190.897 37.6575H191.257V38.5638H190.716Z" fill="white"/>
<path d="M193.275 36.7511C193.275 37.2949 193.587 37.7068 194.145 37.7068C194.571 37.7068 194.784 37.575 195.047 37.3113L195.654 37.9375C195.244 38.3659 194.866 38.6131 194.145 38.6131C193.21 38.6131 192.324 38.1517 192.324 36.4215C192.324 35.0209 193.013 34.23 194.046 34.23C195.145 34.23 195.769 35.1033 195.769 36.2732V36.7511H193.292H193.275ZM194.686 35.5647C194.588 35.3175 194.358 35.1198 194.03 35.1198C193.702 35.1198 193.472 35.301 193.374 35.5647C193.308 35.713 193.292 35.8283 193.292 36.0261H194.801C194.801 35.8448 194.768 35.7295 194.702 35.5647H194.686Z" fill="white"/>
<path d="M199.181 35.4495C199.033 35.2847 198.902 35.2023 198.656 35.2023C198.344 35.2023 198.016 35.4495 198.016 35.9932V38.5803H197.032V34.296H198V34.708C198.196 34.4608 198.574 34.2466 199 34.2466C199.394 34.2466 199.656 34.3454 199.935 34.6421L199.197 35.4495H199.181Z" fill="white"/>
<path d="M200.755 36.7182V35.7295H203.085V36.7182H200.755Z" fill="white"/>
<path d="M156.907 48.4341V45.9789H155.086V48.4341H154.036V42.5845H155.086V44.9738H156.907V42.5845H157.957V48.4341H156.907Z" fill="white"/>
<path d="M161.795 48.4341V48.0387C161.533 48.3353 161.172 48.4836 160.811 48.4836C160.417 48.4836 160.106 48.3518 159.876 48.1046C159.564 47.7586 159.466 47.3631 159.466 46.8852V44.1499H160.45V46.7369C160.45 47.3137 160.795 47.5114 161.106 47.5114C161.418 47.5114 161.762 47.3137 161.762 46.7369V44.1499H162.747V48.4341H161.779H161.795Z" fill="white"/>
<path d="M168.833 48.4339V45.8469C168.833 45.2702 168.488 45.0724 168.177 45.0724C167.865 45.0724 167.521 45.2702 167.521 45.8304V48.4504H166.536V45.8634C166.536 45.2866 166.192 45.0889 165.88 45.0889C165.568 45.0889 165.224 45.2866 165.224 45.8634V48.4504H164.24V44.1661H165.208V44.5616C165.47 44.2815 165.831 44.1167 166.192 44.1167C166.635 44.1167 166.996 44.2815 167.242 44.6605C167.57 44.2815 167.931 44.1167 168.423 44.1167C168.817 44.1167 169.177 44.2485 169.391 44.4957C169.702 44.8417 169.817 45.2372 169.817 45.7151V48.4504H168.833V48.4339Z" fill="white"/>
<path d="M173.278 48.4339V48.0714C173.016 48.3515 172.77 48.4833 172.31 48.4833C171.851 48.4833 171.539 48.368 171.293 48.1043C171.08 47.8737 170.965 47.5276 170.965 47.1486C170.965 46.473 171.392 45.9128 172.31 45.9128H173.246V45.6986C173.246 45.2372 173.032 45.023 172.507 45.023C172.13 45.023 171.95 45.1218 171.753 45.369L171.129 44.7099C171.523 44.2485 171.9 44.1167 172.557 44.1167C173.656 44.1167 174.246 44.6275 174.246 45.6327V48.4504H173.278V48.4339ZM173.262 46.6213H172.475C172.114 46.6213 171.917 46.8026 171.917 47.0992C171.917 47.3958 172.097 47.5935 172.491 47.5935C172.77 47.5935 172.934 47.5606 173.114 47.3958C173.213 47.2969 173.262 47.1157 173.262 46.852V46.6213Z" fill="white"/>
<path d="M177.987 48.4343V45.8472C177.987 45.2705 177.642 45.0728 177.33 45.0728C177.019 45.0728 176.674 45.2705 176.674 45.8472V48.4343H175.69V44.15H176.658V44.5455C176.92 44.2489 177.281 44.1006 177.642 44.1006C178.036 44.1006 178.347 44.2324 178.577 44.4796C178.889 44.8256 178.987 45.2211 178.987 45.6989V48.4343H178.003H177.987Z" fill="white"/>
<path d="M182.612 48.4341V42.5845H183.662V48.4341H182.612Z" fill="white"/>
<path d="M187.534 48.4343V45.8472C187.534 45.2705 187.189 45.0728 186.878 45.0728C186.566 45.0728 186.222 45.2705 186.222 45.8472V48.4343H185.237V44.15H186.205V44.5455C186.468 44.2489 186.829 44.1006 187.189 44.1006C187.583 44.1006 187.895 44.2324 188.124 44.4796C188.436 44.8256 188.535 45.2211 188.535 45.6989V48.4343H187.55H187.534Z" fill="white"/>
<path d="M191.192 48.4339C190.388 48.4339 190.043 47.8242 190.043 47.2146V45.0889H189.633V44.2815H190.043V43.0127H191.028V44.2815H191.717V45.0889H191.028V47.1486C191.028 47.3958 191.126 47.5276 191.372 47.5276H191.733V48.4339H191.192Z" fill="white"/>
<path d="M193.751 46.6217C193.751 47.1655 194.062 47.5774 194.62 47.5774C195.047 47.5774 195.26 47.4456 195.522 47.1819L196.129 47.8081C195.719 48.2365 195.342 48.4837 194.62 48.4837C193.685 48.4837 192.799 48.0223 192.799 46.2921C192.799 44.8915 193.488 44.1006 194.522 44.1006C195.621 44.1006 196.244 44.9739 196.244 46.1438V46.6217H193.767H193.751ZM195.162 45.4353C195.063 45.1881 194.833 44.9904 194.505 44.9904C194.177 44.9904 193.948 45.1716 193.849 45.4353C193.784 45.5836 193.767 45.6989 193.767 45.8967H195.276C195.276 45.7154 195.244 45.6001 195.178 45.4353H195.162Z" fill="white"/>
<path d="M199.656 45.3196C199.509 45.1548 199.377 45.0724 199.131 45.0724C198.82 45.0724 198.492 45.3196 198.492 45.8634V48.4504H197.507V44.1661H198.475V44.5781C198.672 44.3309 199.049 44.1167 199.476 44.1167C199.87 44.1167 200.132 44.2156 200.411 44.5122L199.673 45.3196H199.656Z" fill="white"/>
<path d="M203.282 48.4339V48.0714C203.019 48.3515 202.773 48.4833 202.314 48.4833C201.855 48.4833 201.543 48.368 201.297 48.1043C201.084 47.8737 200.969 47.5276 200.969 47.1486C200.969 46.473 201.395 45.9128 202.314 45.9128H203.249V45.6986C203.249 45.2372 203.036 45.023 202.511 45.023C202.133 45.023 201.953 45.1218 201.756 45.369L201.133 44.7099C201.526 44.2485 201.904 44.1167 202.56 44.1167C203.659 44.1167 204.25 44.6275 204.25 45.6327V48.4504H203.282V48.4339ZM203.265 46.6213H202.478C202.117 46.6213 201.92 46.8026 201.92 47.0992C201.92 47.3958 202.101 47.5935 202.494 47.5935C202.773 47.5935 202.937 47.5606 203.118 47.3958C203.216 47.2969 203.265 47.1157 203.265 46.852V46.6213Z" fill="white"/>
<path d="M207.268 48.4837C206.481 48.4837 205.497 48.0223 205.497 46.2921C205.497 44.562 206.481 44.1006 207.268 44.1006C207.81 44.1006 208.22 44.2818 208.564 44.6773L207.892 45.4023C207.695 45.1716 207.514 45.0728 207.252 45.0728C207.022 45.0728 206.842 45.1716 206.694 45.3529C206.546 45.5506 206.481 45.8472 206.481 46.2921C206.481 46.737 206.546 47.0336 206.694 47.2479C206.842 47.4291 207.022 47.528 207.252 47.528C207.514 47.528 207.678 47.4291 207.892 47.1984L208.564 47.907C208.22 48.3024 207.81 48.4837 207.268 48.4837Z" fill="white"/>
<path d="M210.943 48.4339C210.139 48.4339 209.794 47.8242 209.794 47.2146V45.0889H209.384V44.2815H209.794V43.0127H210.779V44.2815H211.468V45.0889H210.779V47.1486C210.779 47.3958 210.877 47.5276 211.123 47.5276H211.484V48.4339H210.943Z" fill="white"/>
<path d="M212.747 43.4246V42.5513H213.764V43.4246H212.747ZM212.763 48.4339V44.1496H213.748V48.4339H212.763Z" fill="white"/>
<path d="M217.947 47.9564C217.701 48.2365 217.307 48.4837 216.717 48.4837C216.126 48.4837 215.733 48.2365 215.503 47.9564C215.142 47.5609 215.06 47.0666 215.06 46.2921C215.06 45.5177 215.158 45.0398 215.503 44.6279C215.749 44.3478 216.143 44.1006 216.717 44.1006C217.291 44.1006 217.701 44.3478 217.947 44.6279C218.308 45.0233 218.39 45.5177 218.39 46.2921C218.39 47.0666 218.292 47.5609 217.947 47.9564ZM217.176 45.254C217.061 45.1387 216.914 45.0728 216.717 45.0728C216.52 45.0728 216.372 45.1387 216.258 45.254C216.061 45.4682 216.028 45.8472 216.028 46.2921C216.028 46.737 216.044 47.116 216.258 47.3302C216.372 47.4456 216.52 47.5115 216.717 47.5115C216.914 47.5115 217.061 47.4456 217.176 47.3302C217.373 47.116 217.406 46.737 217.406 46.2921C217.406 45.8472 217.389 45.4847 217.176 45.254Z" fill="white"/>
<path d="M222.015 48.4343V45.8472C222.015 45.2705 221.671 45.0728 221.359 45.0728C221.047 45.0728 220.703 45.2705 220.703 45.8472V48.4343H219.719V44.15H220.687V44.5455C220.949 44.2489 221.31 44.1006 221.671 44.1006C222.065 44.1006 222.376 44.2324 222.606 44.4796C222.918 44.8256 223.016 45.2211 223.016 45.6989V48.4343H222.032H222.015Z" fill="white"/>
<path opacity="0.8" d="M0.00012207 5.52539L23.9668 5.52539V0.779768L0.00012207 0.779768V5.52539Z" fill="white"/>
<path opacity="0.8" d="M14.354 48.4338L14.354 0.779785L9.59676 0.779785L9.59676 48.4338H14.354Z" fill="white"/>
<path d="M11.9586 4.28957C12.5837 4.28957 13.0905 3.78053 13.0905 3.1526C13.0905 2.52466 12.5837 2.01562 11.9586 2.01562C11.3334 2.01562 10.8267 2.52466 10.8267 3.1526C10.8267 3.78053 11.3334 4.28957 11.9586 4.28957Z" fill="white"/>
<path opacity="0.8" d="M66.7817 48.4341V0.5L62.0409 0.5V48.4341H66.7817Z" fill="white"/>
<path opacity="0.8" d="M128.117 48.4672V0.516602L123.344 0.516602V48.4672H128.117Z" fill="white"/>
<path opacity="0.8" d="M110.335 48.4672V0.516602L105.561 0.516602V48.4672H110.335Z" fill="white"/>
<path opacity="0.8" d="M105.562 26.1563L128.118 26.1562V21.3612L105.562 21.3612V26.1563Z" fill="white"/>
<path d="M107.94 24.8872C108.565 24.8872 109.072 24.3782 109.072 23.7503C109.072 23.1223 108.565 22.6133 107.94 22.6133C107.315 22.6133 106.808 23.1223 106.808 23.7503C106.808 24.3782 107.315 24.8872 107.94 24.8872Z" fill="white"/>
<path d="M125.722 24.8872C126.347 24.8872 126.854 24.3782 126.854 23.7503C126.854 23.1223 126.347 22.6133 125.722 22.6133C125.097 22.6133 124.59 23.1223 124.59 23.7503C124.59 24.3782 125.097 24.8872 125.722 24.8872Z" fill="white"/>
<path opacity="0.8" d="M23.2612 48.467L36.4011 0.5H39.9936L40.2397 1.37333L40.6662 2.9552L28.1989 48.467H23.2612Z" fill="white"/>
<path opacity="0.8" d="M53.1335 48.4506L39.9936 0.5H36.4011L35.7285 2.9552L48.1958 48.4341L53.1335 48.4506Z" fill="white"/>
<path opacity="0.8" d="M27.4114 33.4888H48.9666L50.1969 38.0037L26.1318 38.1355L27.4114 33.4888Z" fill="white"/>
<path d="M29.1505 36.9492C29.7756 36.9492 30.2823 36.4402 30.2823 35.8123C30.2823 35.1843 29.7756 34.6753 29.1505 34.6753C28.5253 34.6753 28.0186 35.1843 28.0186 35.8123C28.0186 36.4402 28.5253 36.9492 29.1505 36.9492Z" fill="white"/>
<path d="M46.982 36.9492C47.6071 36.9492 48.1139 36.4402 48.1139 35.8123C48.1139 35.1843 47.6071 34.6753 46.982 34.6753C46.3569 34.6753 45.8501 35.1843 45.8501 35.8123C45.8501 36.4402 46.3569 36.9492 46.982 36.9492Z" fill="white"/>
<path opacity="0.8" d="M145.408 48.4507V0.516602L140.667 0.516602V48.4507H145.408Z" fill="white"/>
<path opacity="0.8" d="M82.2677 11.8203H77.5269V37.1468H82.2677V11.8203Z" fill="white"/>
<path d="M79.9057 15.5112C80.4674 15.5112 80.9228 15.0022 80.9228 14.3743C80.9228 13.7463 80.4674 13.2373 79.9057 13.2373C79.344 13.2373 78.8887 13.7463 78.8887 14.3743C78.8887 15.0022 79.344 15.5112 79.9057 15.5112Z" fill="white"/>
<path d="M79.9053 35.7793C80.5305 35.7793 81.0372 35.2703 81.0372 34.6423C81.0372 34.0144 80.5305 33.5054 79.9053 33.5054C79.2802 33.5054 78.7734 34.0144 78.7734 34.6423C78.7734 35.2703 79.2802 35.7793 79.9053 35.7793Z" fill="white"/>
<path opacity="0.8" d="M82.2842 37.147C82.2842 38.63 82.7271 39.9647 83.6129 41.1346C84.4988 42.3045 85.6635 43.079 87.0907 43.4745C88.5178 43.8699 89.9122 43.7875 91.2737 43.2108C92.6353 42.6341 94.4234 40.4261 94.4234 40.4261L98.5737 42.8154C98.5737 42.8154 97.1465 44.9245 96.195 45.7155C95.26 46.5064 94.2265 47.149 93.111 47.6104C91.9955 48.0883 90.8308 48.3684 89.5841 48.4673C88.3538 48.5661 87.1071 48.4343 85.8767 48.0883C83.3505 47.3962 81.3327 46.045 79.7907 44.0347C78.2651 42.0244 77.4941 39.734 77.4941 37.147" fill="white"/>
<path opacity="0.8" d="M77.5269 11.8698C77.5269 9.28279 78.2979 6.99236 79.8235 4.98207C81.3491 2.97177 83.3832 1.62058 85.9095 0.928512C87.1398 0.582477 88.3865 0.450654 89.6168 0.549521C90.8471 0.648388 92.0283 0.928512 93.1437 1.40637C94.2592 1.88423 95.2763 2.52686 96.2278 3.35076C97.1628 4.17465 98.6064 6.2179 98.6064 6.2179L94.4561 8.60719C94.4561 8.60719 92.668 6.38268 91.3065 5.82244C89.9449 5.24571 88.5505 5.16332 87.1234 5.55879C85.6962 5.95426 84.5315 6.7452 83.6457 7.89865C82.7598 9.06857 82.3169 10.3868 82.3169 11.8863" fill="white"/>
</g>
<defs>
<clipPath id="clip0_953_3279">
<rect width="223" height="48" fill="white" transform="translate(0 0.5)"/>
</clipPath>
</defs>
</svg>
