<svg width="294" height="117" viewBox="0 0 294 117" fill="none" xmlns="http://www.w3.org/2000/svg">
<g clip-path="url(#clip0_486_1669)">
<path d="M123.508 51.9185H112.458C111.029 51.9185 110.384 52.5012 110.384 53.8209V65.0811C110.384 65.9724 110.628 66.9835 112.458 66.9835H123.508C124.919 66.9835 125.582 66.3837 125.582 65.0811V53.8209C125.582 52.9982 125.373 51.9185 123.508 51.9185ZM122.758 66.058H113.19C112.476 66.058 112.336 65.7838 112.336 65.2182V53.6838C112.336 52.9639 112.65 52.8268 113.19 52.8268H122.758C123.403 52.8268 123.612 53.0496 123.612 53.6838V65.2182C123.612 65.9209 123.316 66.058 122.758 66.058Z" fill="white"/>
<path d="M116.537 61.294C117.199 61.294 117.826 61.1569 117.826 60.2314V58.0719C117.826 57.3178 117.46 57.0093 116.537 57.0093H114.654C113.975 57.0093 113.347 57.1464 113.347 58.0719V60.2314C113.347 60.9855 113.731 61.294 114.654 61.294H116.537ZM114.829 59.9057V58.3975C114.829 57.9691 114.898 57.9005 115.334 57.9005H115.839C116.275 57.9005 116.345 57.9691 116.345 58.3975V59.9057C116.345 60.2999 116.293 60.4028 115.839 60.4028H115.334C114.881 60.4028 114.829 60.2999 114.829 59.9057Z" fill="white"/>
<path d="M122.287 57.643C121.642 57.643 121.52 57.9858 121.415 58.26V58.2943C120.997 59.4597 120.927 59.6654 120.596 60.3509C120.161 58.4142 120.108 56.9917 120.073 56.2033H122.723C123.071 56.2033 123.28 56.0319 123.28 55.7406C123.28 55.3978 122.984 55.2778 122.723 55.2778H122.426C122.513 55.1578 122.583 55.0207 122.583 54.8665C122.583 54.5408 122.374 54.3866 122.008 54.1466C121.59 53.8724 121.137 53.5982 120.945 53.5982C120.718 53.5982 120.527 53.7867 120.527 54.0095C120.527 54.0781 120.561 54.1981 120.579 54.2323C120.649 54.3352 120.736 54.438 120.805 54.5408C120.927 54.6951 121.049 54.8493 121.102 54.9522C121.189 55.0893 121.259 55.1921 121.328 55.2778H120.021V54.1809C120.021 53.5811 119.673 53.2383 119.097 53.2383C118.749 53.2383 118.296 53.4782 118.209 53.8553C118.174 54.0095 118.191 54.935 118.209 55.2778H113.276C112.998 55.2778 112.719 55.3978 112.719 55.7406C112.719 56.0833 113.015 56.2033 113.276 56.2033H118.243C118.313 57.3173 118.47 59.8368 119.289 62.3562C118.54 63.2817 117.477 64.2072 116.448 64.8242C116.309 64.927 116.17 65.0298 116.17 65.2355C116.17 65.4412 116.344 65.6983 116.64 65.6983C116.989 65.6983 118.575 64.7213 119.795 63.6587C120.387 65.047 121.137 65.3555 121.677 65.3555C122.566 65.3555 123.054 64.7385 123.176 64.3443C123.245 64.1043 123.193 63.9158 123.054 63.8301C122.845 63.7101 122.67 63.8301 122.496 63.9672C122.287 64.1215 122.095 64.2757 121.799 64.1043C121.59 63.9844 121.224 63.0075 121.102 62.3219C122.409 60.7451 123.263 58.9798 123.263 58.4999C123.263 58.0886 122.879 57.643 122.252 57.643H122.287Z" fill="white"/>
<path d="M117.983 62.8195C118.105 62.7853 118.384 62.6824 118.384 62.3397C118.384 62.0654 118.123 61.894 117.931 61.894C117.896 61.894 117.809 61.894 117.757 61.894C117.722 61.894 117.704 61.894 117.687 61.894C116.223 62.0997 115.177 62.2197 113.87 62.2711H113.853C113.626 62.2882 113.068 62.3225 113.068 62.9909C113.068 63.3508 113.365 63.745 113.783 63.745C113.87 63.745 116.554 63.1966 117.966 62.8024L117.983 62.8195Z" fill="white"/>
<path d="M289.511 61.3447H281.616C280.483 61.3447 280.013 61.8075 280.013 62.9044V65.4581C280.013 66.2636 280.204 67.0177 281.616 67.0177H289.511C290.644 67.0177 291.132 66.555 291.132 65.4581V62.9044C291.132 61.8075 290.644 61.3447 289.511 61.3447ZM289.18 64.6525V65.3038C289.18 65.9208 289.075 66.0408 288.535 66.0408H282.575C282.034 66.0408 281.93 65.938 281.93 65.3038V64.6525H289.162H289.18ZM289.18 63.0758V63.6928H281.947V63.0758C281.947 62.4588 282.052 62.3388 282.592 62.3388H288.552C289.093 62.3388 289.197 62.4416 289.197 63.0758H289.18Z" fill="white"/>
<path d="M290.748 56.2373H280.413C279.036 56.2373 278.862 56.9229 278.862 57.5913V59.2195C278.862 59.8879 279.054 60.5734 280.413 60.5734H290.748C292.107 60.5734 292.299 59.9222 292.299 59.2195V57.5913C292.299 56.9229 292.107 56.2373 290.748 56.2373ZM284.073 59.3737C284.073 59.288 284.055 59.2023 284.003 59.1166C283.759 58.7396 283.533 58.2597 283.306 57.677C283.184 57.3685 283.027 57.1971 282.818 57.1285H284.683V59.7165H283.899C284.003 59.6479 284.09 59.528 284.09 59.3737H284.073ZM281.633 57.9341C281.633 58.4654 282.905 59.4251 283.445 59.6994H281.371C280.849 59.6994 280.727 59.6479 280.727 59.0652V57.7284C280.727 57.1971 280.814 57.0942 281.371 57.0942H282.278C281.912 57.2142 281.633 57.5399 281.633 57.8998V57.9341ZM289.685 57.8826C289.685 57.5227 289.388 57.2314 289.057 57.1285H289.772C290.312 57.1285 290.417 57.2142 290.417 57.7627V59.0995C290.417 59.6651 290.312 59.7336 289.772 59.7336H287.837C288.378 59.4594 289.685 58.4482 289.685 57.9169V57.8826ZM287.68 58.3454C287.68 58.3454 287.576 58.5682 287.489 58.7396C287.262 59.1681 287.192 59.3052 287.192 59.3737C287.192 59.5108 287.28 59.6479 287.402 59.7336H286.461V57.1457H288.395C288.134 57.2656 287.977 57.6256 287.68 58.3625V58.3454Z" fill="white"/>
<path d="M293.083 54.7635C291.741 54.3865 289.179 53.4952 287.227 51.5586C286.652 50.9758 286.495 50.8901 285.659 50.8901C284.822 50.8901 284.648 51.0272 284.369 51.2843C283.219 52.3469 281.79 53.6838 278.147 54.7464C278.078 54.7464 277.781 54.8492 277.781 55.192C277.781 55.4491 278.008 55.6376 278.2 55.6376C278.461 55.6376 279.454 55.3462 280.03 55.1749C280.657 54.9863 281.197 54.8149 281.668 54.6436C281.581 54.7464 281.563 54.8835 281.563 54.9349C281.563 55.0892 281.633 55.3634 282.086 55.3634H289.022C289.371 55.3634 289.563 55.2091 289.563 54.9349C289.563 54.8321 289.51 54.7121 289.406 54.6093C291.166 55.312 292.735 55.6719 293.048 55.6719C293.24 55.6719 293.484 55.5176 293.484 55.2263C293.484 55.0035 293.345 54.8492 293.083 54.7807V54.7635ZM289.022 54.4722H282.103C283.916 53.7866 284.718 53.2382 285.432 52.7411L285.485 52.7069C285.589 52.6383 285.624 52.604 285.676 52.604C285.763 52.604 285.798 52.6212 285.92 52.7411C286.879 53.461 288.029 54.0437 289.127 54.4893C289.092 54.4893 289.057 54.4722 289.022 54.4722Z" fill="white"/>
<path d="M152.647 66.2816V59.7174C153.013 60.2145 154.111 61.6541 154.564 61.6541C154.826 61.6541 155.035 61.4485 155.035 61.1914C155.035 61.02 154.895 60.8829 154.86 60.8486C153.396 59.0833 152.804 57.1637 152.647 56.5982V56.5296H154.425C154.773 56.5296 154.982 56.3582 154.982 56.0669C154.982 55.7755 154.773 55.6041 154.425 55.6041H152.647V53.2732C154.32 53.1018 154.773 52.9647 154.773 52.3648C154.773 51.9364 154.39 51.4736 153.867 51.4736C153.693 51.4736 152.786 51.7993 152.769 51.7993C151.392 52.262 150.172 52.3991 148.656 52.5705L148.36 52.6048C148.203 52.6048 147.75 52.6562 147.75 53.0847C147.75 53.4275 148.046 53.5474 148.29 53.5474C148.534 53.5474 149.789 53.496 150.695 53.4275V55.6041H148.273C147.994 55.6041 147.715 55.7241 147.715 56.0669C147.715 56.3582 147.924 56.5296 148.273 56.5296H150.573C149.963 59.6317 148.482 62.0826 147.645 63.0767C147.506 63.2309 147.436 63.3166 147.436 63.488C147.436 63.7451 147.663 63.9507 147.924 63.9507C148.238 63.9507 149.562 62.6996 150.695 60.8657V66.2988C150.695 66.6244 150.695 67.5156 151.671 67.5156C152.647 67.5156 152.647 66.6244 152.647 66.2988V66.2816Z" fill="white"/>
<path d="M157.127 59.4432C157.284 59.7859 157.51 60.0944 158.016 60.0944C158.626 60.0944 159.079 59.5289 159.079 59.0318C159.079 58.4148 158.05 57.7121 157.493 57.3351C157.458 57.3179 157.406 57.2837 157.353 57.2494C156.708 56.838 156.064 56.4438 155.872 56.4438C155.645 56.4438 155.401 56.6152 155.401 56.9066C155.401 57.0437 155.489 57.1637 155.558 57.2665C156.255 58.0035 156.726 58.6033 157.109 59.4432H157.127Z" fill="white"/>
<path d="M157.074 54.7462C157.718 55.6889 157.806 55.8088 158.224 55.8088C158.764 55.8088 159.217 55.3461 159.217 54.7976C159.217 54.4549 159.113 54.1464 157.736 53.2723C157.614 53.1866 156.516 52.4839 156.22 52.4839C155.958 52.4839 155.749 52.6895 155.749 52.9466C155.749 53.0666 155.819 53.1866 155.888 53.2551C156.359 53.7864 156.725 54.2492 157.074 54.7462Z" fill="white"/>
<path d="M164.273 61.4304C164.273 61.1905 164.046 61.0019 163.785 61.0019L161.902 61.2933V52.6382C161.902 52.3125 161.902 51.4556 160.909 51.4556C159.916 51.4556 159.95 52.3468 159.95 52.6382V61.5847L155.07 62.3216C154.948 62.3216 154.826 62.373 154.757 62.4759C154.67 62.5616 154.635 62.6815 154.635 62.8015C154.635 63.0415 154.844 63.23 155.105 63.23C155.105 63.23 155.105 63.23 155.123 63.23L159.95 62.493V66.315C159.95 66.6406 159.95 67.5147 160.926 67.5147C161.902 67.5147 161.902 66.6064 161.902 66.315V62.2017L163.819 61.9103C163.941 61.9103 164.063 61.8589 164.133 61.756C164.22 61.6704 164.255 61.5504 164.255 61.4304H164.273Z" fill="white"/>
<path d="M264.867 64.0879C264.501 64.0879 264.362 64.1907 263.961 64.4821C263.577 64.7563 262.514 65.4761 260.841 66.0246C260.057 66.2817 259.865 66.3502 259.865 66.6416C259.865 66.8644 260.057 67.0872 260.388 67.0872C260.597 67.0872 262.044 66.8815 263.787 66.4188C265.477 65.956 265.983 65.6647 265.983 65.0648C265.983 64.5678 265.425 64.0879 264.867 64.0879Z" fill="white"/>
<path d="M263.002 63.7614H272.466C273.686 63.7614 274.226 63.2815 274.226 62.2017V57.7799C274.226 56.6659 273.703 56.2031 272.466 56.2031H263.002C261.765 56.2031 261.242 56.683 261.242 57.7799V62.2017C261.242 63.2986 261.765 63.7614 263.002 63.7614ZM263.177 58.3455V57.7285C263.177 57.2486 263.246 57.1115 263.804 57.1115H271.595C272.117 57.1115 272.222 57.2657 272.222 57.7285V58.3455H263.177ZM263.177 60.5393V59.2538H272.222V60.5393H263.177ZM263.177 62.2703V61.4305H272.222V62.2703C272.222 62.7159 272.135 62.8702 271.595 62.8702H263.804C263.264 62.8702 263.177 62.733 263.177 62.2703Z" fill="white"/>
<path d="M263.368 55.364H271.751C272.884 55.364 273.372 54.9526 273.372 53.9757V52.9302C273.372 51.9362 272.902 51.542 271.751 51.542H263.368C262.236 51.542 261.748 51.9533 261.748 52.9302V53.9757C261.748 54.6613 261.939 55.364 263.368 55.364ZM263.665 53.8386V53.0674C263.665 52.5532 263.717 52.4332 264.327 52.4332H270.723C271.316 52.4332 271.385 52.5532 271.385 53.0674V53.8386C271.385 54.3356 271.316 54.4727 270.723 54.4727H264.327C263.734 54.4727 263.665 54.3528 263.665 53.8386Z" fill="white"/>
<path d="M273.285 64.9961C271.856 64.6019 270.252 64.3276 269.939 64.3276C269.59 64.3276 269.381 64.499 269.381 64.7732C269.381 64.9961 269.538 65.1674 269.817 65.236C271.054 65.6131 271.925 65.9387 272.971 66.59C273.947 67.207 274.104 67.2927 274.418 67.2927C274.975 67.2927 275.498 66.8471 275.498 66.35C275.498 65.7844 275.01 65.4759 273.285 64.9961Z" fill="white"/>
<path d="M223.859 65.9208C223.859 66.6407 224.155 67.0177 224.765 67.0177C225.375 67.0177 225.672 66.6578 225.672 65.9208V57.7456C226.003 57.2828 226.683 56.3402 226.683 55.9117C226.683 55.2947 226.073 55.0205 225.637 55.0205C225.062 55.0205 224.87 55.5004 224.713 55.8775C224.033 57.6428 223.371 58.6368 222.134 60.1622C222.047 60.265 221.959 60.3678 221.959 60.5221C221.959 60.762 222.169 60.9677 222.413 60.9677C222.674 60.9677 223.267 60.4364 223.859 59.8537V65.9208Z" fill="white"/>
<path d="M222.622 56.0662C223.11 56.0662 226.316 53.1183 226.316 52.21C226.316 51.6787 225.776 51.353 225.288 51.353C224.922 51.353 224.643 51.4559 224.417 51.97C223.772 53.4268 223.406 54.1124 222.395 55.2093C222.273 55.3293 222.168 55.4492 222.168 55.6206C222.168 55.8777 222.36 56.0662 222.604 56.0662H222.622Z" fill="white"/>
<path d="M227.92 57.4199C227.397 57.4199 227.205 57.7113 227.171 58.2255C227.101 59.6994 226.996 61.1733 226.648 62.5959C226.595 62.8358 226.229 64.0013 226.229 64.087C226.229 64.2755 226.386 64.4812 226.63 64.4812C226.874 64.4812 226.996 64.344 227.327 63.6413C228.269 61.6361 228.791 58.9281 228.791 58.1912C228.791 57.6599 228.303 57.4371 227.937 57.4371L227.92 57.4199Z" fill="white"/>
<path d="M227.397 55.741H229.14V65.9387C229.14 66.1957 229.14 67.0013 230.046 67.0013C230.465 67.0013 230.953 66.8127 230.953 65.9558V55.741H232.817C233.166 55.741 233.358 55.5696 233.358 55.2954C233.358 54.9698 233.079 54.8498 232.817 54.8498H230.953V52.4161C230.953 51.7305 230.639 51.3706 230.029 51.3706C229.628 51.3706 229.14 51.5591 229.14 52.4161V54.8498H227.397C227.049 54.8498 226.857 55.0212 226.857 55.2954C226.857 55.5696 227.066 55.741 227.397 55.741Z" fill="white"/>
<path d="M231.892 53.6496C232.189 54.3694 232.224 54.4723 232.555 54.4723C232.886 54.4723 233.234 54.1809 233.234 53.8038C233.234 53.2383 231.962 52.2271 231.77 52.1928C231.457 52.1242 231.37 52.2956 231.37 52.4499C231.37 52.5698 231.596 53.0326 231.736 53.3068C231.805 53.4611 231.875 53.581 231.892 53.6496Z" fill="white"/>
<path d="M237.61 56.1865H233.741C233.392 56.1865 233.201 56.3579 233.201 56.6321C233.201 56.9064 233.392 57.0606 233.741 57.0606H234.978V65.3901C234.978 65.9043 234.926 66.0242 234.316 66.0242H233.706C233.323 66.0242 233.131 66.1785 233.131 66.4699C233.131 66.7612 233.323 66.9155 233.706 66.9155H235.222C236.616 66.9155 236.808 66.2128 236.808 65.4758V57.0606H237.61C237.958 57.0606 238.15 56.8892 238.15 56.615C238.15 56.4607 238.08 56.1865 237.61 56.1865Z" fill="white"/>
<path d="M234.176 53.2726H237.401C237.732 53.2726 237.924 53.1012 237.924 52.827C237.924 52.5527 237.732 52.3813 237.401 52.3813H234.176C233.828 52.3813 233.636 52.5527 233.636 52.827C233.636 53.1526 233.915 53.2726 234.176 53.2726Z" fill="white"/>
<path d="M234.49 63.4536C234.682 63.3508 234.665 63.0766 234.49 62.9566C234.281 62.8195 233.95 62.8709 233.706 62.8023C233.41 62.7167 233.079 62.5624 232.992 62.2368C232.782 60.8657 232.957 59.8545 232.957 58.2263C232.957 57.695 232.678 57.4207 232.172 57.455C231.806 57.455 231.318 57.7121 231.353 58.2434C231.406 59.4088 231.44 60.5914 231.615 61.7569C231.719 62.4939 231.928 63.1965 232.66 63.5393C233.236 63.7964 233.95 63.7793 234.49 63.4708V63.4536Z" fill="white"/>
<path d="M193.882 63.368C192.558 64.6534 191.634 65.3218 189.491 66.0416C189.281 66.1102 189.142 66.2644 189.142 66.4701C189.142 66.7443 189.369 66.9157 189.578 66.9157C189.63 66.9157 189.682 66.9157 189.769 66.8814C189.804 66.8814 189.857 66.8814 189.909 66.8472C192.575 66.1959 194.057 64.9962 194.789 64.4306C194.858 64.3792 194.928 64.3277 194.98 64.2763C197.211 65.9731 200 66.8814 200.296 66.8814C200.488 66.8814 200.749 66.7272 200.749 66.4358C200.749 66.1616 200.523 66.0416 200.348 65.9559H200.331C199.111 65.3904 197.263 64.5677 195.956 63.4365C198.553 60.9685 199.721 57.9349 199.721 57.4379C199.721 56.9409 199.372 56.3924 198.379 56.3924H196.688C196.392 56.3924 196.27 56.3239 196.27 56.1182C196.27 55.9126 196.654 55.2613 197.037 54.6443C197.49 53.8902 197.926 53.1875 197.926 52.879C197.926 52.1934 197.42 51.8335 196.41 51.8335H186.441C185.987 51.8335 185.883 52.0734 185.883 52.262C185.883 52.6733 186.284 52.7076 186.423 52.7076H189.613C189.613 57.5065 189.072 62.3568 184.977 65.5275C184.889 65.596 184.698 65.716 184.698 65.9559C184.698 66.1959 184.907 66.4016 185.151 66.4016C185.447 66.4016 189.752 64.1564 190.885 58.3634C192.296 61.3284 192.959 62.4425 193.865 63.3166L193.882 63.368ZM194.998 54.4729C194.545 55.2956 194.109 56.0668 194.109 56.3239C194.109 56.7009 194.283 57.3179 195.521 57.3179H196.723C197.263 57.3179 197.403 57.3179 197.403 57.575C197.403 57.7293 196.619 60.2316 194.806 62.3739C192.558 59.8374 191.948 56.5638 191.634 53.4274V52.7761H195.277C195.364 52.7761 195.573 52.7761 195.678 52.879C195.712 52.9132 195.73 52.9647 195.73 53.0332C195.73 53.2046 195.346 53.8559 194.998 54.49V54.4729Z" fill="white"/>
<path d="M130.165 56.2375C131.141 56.2375 131.141 55.3463 131.141 55.0549V54.3865C131.141 53.8552 131.211 53.7181 131.821 53.7181H141.929C142.522 53.7181 142.591 53.8552 142.591 54.3865V55.0549C142.591 55.3806 142.591 56.2375 143.602 56.2375C144.282 56.2375 144.631 55.8433 144.631 55.0549V54.2323C144.631 53.2211 144.125 52.7926 142.957 52.7926H137.868V51.9528C137.868 50.9759 137.171 50.873 136.875 50.873C135.986 50.873 135.864 51.5586 135.864 51.9528V52.7926H130.827C129.66 52.7926 129.154 53.2211 129.154 54.2323V55.0549C129.154 55.8262 129.485 56.2375 130.148 56.2375H130.165Z" fill="white"/>
<path d="M139.367 61.1908C140.186 62.3906 141.18 63.4018 142.33 64.1902C143.55 65.0128 144.839 65.4756 145.136 65.4242C145.38 65.3727 145.537 65.1157 145.484 64.8586C145.449 64.67 145.31 64.5672 145.171 64.4987C143.724 63.7788 142.295 62.8533 140.814 60.2825C142.103 59.3741 142.87 58.5172 142.818 58.0716C142.783 57.7973 142.626 57.5403 142.382 57.3689C142.156 57.2146 141.877 57.1289 141.633 57.1803C141.319 57.2318 141.145 57.386 140.988 57.626C140.657 58.1058 139.454 59.5798 138.635 60.1625C138.164 59.0313 137.467 58.0716 136.526 57.3003C136.997 56.9233 137.206 56.7005 137.485 56.392H137.502L141.371 56.3748C141.72 56.3748 141.929 56.2034 141.929 55.8949C141.929 55.5864 141.72 55.415 141.371 55.415H132.361C132.012 55.415 131.803 55.5864 131.803 55.8949C131.803 56.2377 132.099 56.3748 132.361 56.3748H134.888C134.278 57.1461 132.901 58.5 130.148 59.6141C130.008 59.6826 129.747 59.8026 129.747 60.094C129.747 60.3853 129.973 60.5738 130.2 60.5738C130.461 60.5738 131.716 60.094 132.448 59.7855C133.319 59.4084 134.627 58.74 135.707 57.9516H135.725C135.829 58.123 135.951 58.243 136.091 58.5C134.365 60.4539 131.751 61.8421 130.043 62.4591C129.764 62.5448 129.642 62.6991 129.642 62.9219C129.642 63.179 129.851 63.4018 130.113 63.4018C130.426 63.4018 134.295 62.2535 136.84 60.1111C136.91 60.3168 136.962 60.4882 137.049 60.7624V60.8309C135.237 62.8019 132.622 64.413 129.677 65.3727C129.433 65.4584 129.189 65.5784 129.189 65.8869C129.189 66.1954 129.45 66.3497 129.625 66.3497C129.851 66.3497 134.051 65.3556 137.311 62.8019C137.345 64.4815 137.154 65.4927 136.77 65.8698C136.526 66.1097 136.213 66.1097 135.881 66.0926C135.829 66.0926 135.759 66.0926 135.725 66.0926L134.435 66.0069C134.086 66.0069 133.877 66.1783 133.877 66.4868C133.877 66.9152 135.202 67.4123 136.962 67.4123C139.001 67.4123 139.297 65.1671 139.297 63.8302C139.297 62.9733 139.21 62.1678 139.036 61.4308C139.123 61.3794 139.21 61.328 139.297 61.2765L139.384 61.2251L139.367 61.1908Z" fill="white"/>
<path d="M167.81 61.7399C168.454 61.7399 168.663 61.3629 168.663 60.643V59.7004C168.663 59.2034 168.751 59.1177 169.273 59.1177H180.271C180.776 59.1177 180.881 59.2034 180.881 59.7004V60.6259C180.881 61.3457 181.072 61.7399 181.7 61.7399C182.327 61.7399 182.676 61.3457 182.676 60.6259V59.4947C182.676 58.2436 181.665 58.2093 181.072 58.2093L181.369 53.1362C181.386 52.7934 181.282 52.4849 181.072 52.245C180.828 51.9879 180.445 51.8336 180.027 51.8336H177.813C177.465 51.8336 177.256 52.005 177.256 52.2964C177.256 52.5878 177.465 52.7591 177.813 52.7591H179.051C179.19 52.7591 179.295 52.7934 179.364 52.8791C179.434 52.9477 179.469 53.0505 179.452 53.1533L179.399 54.0446H177.761C177.378 54.0446 177.238 54.2845 177.238 54.5073C177.238 54.7987 177.447 54.9701 177.796 54.9701H179.33L179.26 56.1526H177.691C177.43 56.1526 177.221 56.3583 177.221 56.6154C177.221 56.8896 177.43 57.061 177.778 57.061H179.19L179.12 58.2265H176.628C176.82 58.0722 176.942 57.8665 176.942 57.6266C176.942 57.301 176.715 57.1296 176.227 56.7868C176.68 56.4783 176.959 56.2898 176.959 55.9127C176.959 55.5185 176.593 55.1586 176.14 55.1586C175.983 55.1586 175.844 55.21 175.704 55.33C175.617 55.4328 175.164 55.9127 175.06 56.0155C174.798 55.8613 174.206 55.5014 173.979 55.5014C173.735 55.5014 173.578 55.7242 173.578 55.9127C173.578 56.0327 173.648 56.1355 173.7 56.1869C173.77 56.2555 174.188 56.564 174.275 56.6325C173.805 56.9753 173.665 57.0439 172.48 57.6437C172.341 57.7123 172.254 57.8151 172.254 57.9865C172.254 58.0722 172.289 58.1579 172.341 58.2265H170.371L170.319 57.061H171.783C172.045 57.061 172.254 56.8553 172.254 56.6154C172.254 56.324 172.045 56.1526 171.696 56.1526H170.284L170.215 55.0386H171.731C172.149 55.0386 172.254 54.7473 172.254 54.5759C172.254 54.2331 171.957 54.1131 171.696 54.1131H170.162L170.11 53.2905C170.11 53.0505 170.11 53.0505 171.103 52.9819H171.156C172.114 52.9305 172.742 52.8963 172.742 52.2107C172.742 51.8508 172.428 51.4395 171.992 51.4395C171.853 51.4395 171.469 51.5594 171.034 51.7137C170.877 51.7651 170.737 51.8165 170.685 51.8336C170.11 51.9708 169.639 52.0222 169.221 52.0565H169.151C168.524 52.0907 168.176 52.5535 168.21 53.239L168.472 58.2093C167.775 58.2093 166.781 58.2436 166.781 59.4947V60.643C166.781 61.3629 167.13 61.7399 167.757 61.7399H167.81ZM175.147 57.3866C175.321 57.5752 175.356 57.6266 175.687 58.0722C175.722 58.1065 175.757 58.1579 175.792 58.1922H173.282C173.84 57.9865 174.659 57.6437 175.147 57.3866Z" fill="white"/>
<path d="M175.652 66.1956C175.687 66.1099 175.704 66.0243 175.704 65.9386C175.704 65.9043 175.704 65.87 175.704 65.8357C175.704 65.8186 175.704 65.8014 175.704 65.7672C175.704 65.6815 175.722 65.5958 175.722 65.4929V63.8648H181.822C181.996 63.8648 182.31 63.8133 182.31 63.4706C182.31 63.1106 181.996 63.0764 181.822 63.0764H175.722V62.7164C175.722 62.7164 175.704 62.5793 175.687 62.5108C178.789 61.1739 178.789 61.0026 178.789 60.6769C178.789 60.6769 178.772 60.1113 178.057 60.1113H170.702C170.528 60.1113 170.214 60.1627 170.214 60.5055C170.214 60.8826 170.58 60.8997 170.702 60.8997H175.6C175.704 60.8997 175.774 60.9683 175.774 61.054C175.774 61.2425 175.164 61.7567 175.147 61.7738C175.059 61.7395 174.955 61.7052 174.781 61.7052C174.153 61.7052 173.822 62.0994 173.822 62.7164V63.0764H167.478C167.287 63.0764 166.99 63.1278 166.99 63.4706C166.99 63.8133 167.304 63.8648 167.478 63.8648H173.822V65.4929C173.822 65.5958 173.77 66.1614 173.282 66.2128C172.498 66.3156 171.208 66.1956 171.208 66.1956C171.051 66.1956 170.72 66.2299 170.72 66.5898C170.72 66.9498 171.94 67.4125 173.735 67.4125C174.711 67.4125 175.391 66.8812 175.617 66.1785L175.652 66.1956Z" fill="white"/>
<path d="M250.262 57.9513V56.186C252.476 58.3969 256.519 59.6309 256.833 59.6309C257.059 59.6309 257.286 59.4595 257.286 59.1853C257.286 58.9453 257.147 58.7911 256.833 58.6882C254.097 57.677 252.267 56.0831 251.674 55.449H256.345C256.693 55.449 256.885 55.2776 256.885 55.0034C256.885 54.7291 256.676 54.5749 256.345 54.5749H250.262V53.2038C252.197 53.1181 253.696 52.9467 254.254 52.8267C254.602 52.7582 254.968 52.6211 254.968 52.1583C254.968 51.747 254.585 51.2671 254.062 51.2671C253.922 51.2671 253.452 51.3871 252.946 51.507C252.807 51.5413 252.702 51.5756 252.65 51.5756C249.252 52.2954 244.494 52.3297 243.587 52.3297C243.047 52.3297 242.995 52.6382 242.995 52.7753C242.995 53.0153 243.169 53.1695 243.343 53.2038C243.57 53.2723 245.051 53.2723 246.481 53.2723C247.265 53.2723 247.997 53.2723 248.293 53.2381V54.5406H242.28C241.932 54.5406 241.74 54.712 241.74 54.9862C241.74 55.1405 241.81 55.4147 242.28 55.4147H246.829C245.871 56.4088 243.971 57.7627 241.723 58.6368C241.514 58.7225 241.27 58.8253 241.27 59.1338C241.27 59.4423 241.496 59.5795 241.705 59.5795C242.019 59.5795 245.853 58.414 248.293 56.2031V57.9341C248.293 58.2426 248.345 58.4997 248.45 58.6882C248.311 58.6197 248.136 58.5683 247.945 58.5683C247.596 58.5683 247.335 58.7225 247.108 59.0481C246.864 59.4252 246.393 60.1108 246.01 60.6249H241.827C241.479 60.6249 241.287 60.7963 241.287 61.0705C241.287 61.3448 241.479 61.499 241.827 61.499H245.261L244.372 62.4759C244.372 62.4759 244.285 62.5616 244.267 62.613L244.093 62.7844C243.953 62.9215 243.866 63.1101 243.866 63.3157C243.866 63.5214 243.953 63.7099 244.093 63.847L244.128 63.8813C244.267 64.0184 244.459 64.1041 244.668 64.1041C244.877 64.1041 245.069 64.0184 245.208 63.8813L245.243 63.847C246.603 64.0527 247.683 64.207 248.921 64.5155C246.847 65.7323 242.873 65.9551 242.071 65.9894C241.88 65.9894 241.426 65.9894 241.426 66.435C241.426 66.7264 241.618 66.8806 242.019 66.8806C243.222 66.8806 244.877 66.7607 246.08 66.5721C249.043 66.1437 250.315 65.3038 250.75 64.9953C251.901 65.3895 253.138 65.8352 254.55 66.675C254.794 66.8292 254.968 66.8978 255.195 66.8978C255.7 66.8978 256.205 66.435 256.205 65.9551C256.205 65.6466 256.031 65.3895 255.735 65.2524C254.689 64.7725 253.138 64.3098 252.005 64.0013C252.563 63.47 253.243 62.6987 253.696 61.4647H256.641C256.99 61.4647 257.181 61.2933 257.181 61.0191C257.181 60.7449 256.99 60.5907 256.641 60.5907H253.783C253.696 60.1622 253.312 59.8537 252.842 59.8537H252.702C252.249 59.8537 251.866 60.1622 251.761 60.5907H248.276C248.816 59.9737 248.955 59.8023 248.955 59.4938C248.955 59.3224 248.903 59.1681 248.799 59.0139C248.921 59.0653 249.06 59.0824 249.217 59.0824C249.862 59.0824 250.193 58.6882 250.193 57.8998L250.262 57.9513ZM246.359 62.9215C246.359 62.9215 246.393 62.8187 246.446 62.7673C246.62 62.5788 247.369 61.7561 247.561 61.5161H251.604C251.465 61.9275 251.064 62.7844 250.158 63.6242C248.903 63.4014 247.718 63.2129 246.533 63.0758C246.411 63.0586 246.341 63.0072 246.341 62.9215H246.359Z" fill="white"/>
<path d="M210.073 54.7119H213.419V57.4713H210.439C210.09 57.4713 209.881 57.6427 209.881 57.934C209.881 58.2768 210.16 58.3968 210.439 58.3968H215.946C216.103 58.3968 216.295 58.4311 216.295 58.6367C216.295 58.7224 216.277 58.8424 216.26 58.9452V59.0138C215.894 61.019 214.918 62.2359 214.535 62.6986C213.837 61.7731 213.367 60.7619 213.123 59.6308C213.053 59.3223 212.914 58.7395 212.095 58.7395C211.502 58.7395 210.997 59.168 210.997 59.6822C210.997 60.1964 211.729 62.0988 213.437 63.8469C211.816 65.2181 210.317 65.6637 208.87 66.0921C208.766 66.1264 208.504 66.2121 208.504 66.5377C208.504 66.7777 208.714 67.0005 208.958 67.0005C209.167 67.0005 212.077 66.4692 214.465 64.7724C216.661 66.4692 219.24 67.0519 219.258 67.0519C219.467 67.0519 219.711 66.8805 219.711 66.5892C219.711 66.2978 219.519 66.2121 219.414 66.1607H219.38C217.933 65.5437 216.818 65.0467 215.58 63.8812C217.027 62.5272 217.916 61.0533 218.369 59.2366L218.404 59.1166C218.456 58.8938 218.508 58.6367 218.508 58.431C218.508 57.8655 218.055 57.4884 217.358 57.4884H215.441V54.729H218.892C219.153 54.729 219.449 54.6091 219.449 54.2663C219.449 53.9749 219.24 53.8035 218.892 53.8035H215.441V52.2439C215.441 51.5069 215.092 51.1299 214.447 51.1299C213.803 51.1299 213.471 51.5241 213.471 52.2439V53.8035H210.125C209.777 53.8035 209.568 53.9749 209.568 54.2663C209.568 54.5577 209.777 54.729 210.125 54.729L210.073 54.7119Z" fill="white"/>
<path d="M207.581 60.402C208.121 60.1621 208.661 59.9393 209.184 59.6993C209.48 59.5622 209.515 59.3565 209.411 59.1337C209.306 58.9109 209.114 58.8081 208.818 58.9452C208.417 59.1337 207.999 59.3051 207.581 59.4937V55.706H208.94C209.201 55.706 209.393 55.5003 209.393 55.2604C209.393 55.0204 209.184 54.8147 208.94 54.8147H207.581V52.0897C207.581 51.5584 207.145 51.1299 206.605 51.1299C206.064 51.1299 205.629 51.5584 205.629 52.0897V54.8147H203.799C203.537 54.8147 203.346 55.0204 203.346 55.2604C203.346 55.5003 203.555 55.706 203.799 55.706H205.629V60.2992C204.827 60.6248 204.025 60.9333 203.258 61.2076C202.945 61.3275 202.892 61.5332 202.98 61.756C203.067 61.9788 203.224 62.0988 203.537 61.9959C204.217 61.756 204.914 61.4818 205.629 61.2076V65.2866C205.629 65.2866 205.629 65.7665 205.245 65.8179C204.635 65.9036 203.921 65.8179 203.903 65.8179C203.624 65.8179 203.45 65.955 203.45 66.1778C203.45 66.5206 204.513 66.8977 205.925 66.8977C206.674 66.8977 207.284 66.5035 207.494 65.8693C207.494 65.8693 207.528 65.7151 207.546 65.6465C207.546 65.6465 207.546 65.578 207.546 65.5608C207.546 65.5608 207.546 65.5608 207.546 65.5437C207.546 65.5437 207.546 65.5266 207.546 65.5094V65.458C207.546 65.458 207.546 65.3552 207.546 65.2866V60.402H207.581Z" fill="white"/>
<path d="M174.136 53.2898C173.822 53.6326 173.7 53.7183 172.672 54.541C172.637 54.5752 172.515 54.6781 172.515 54.8666C172.515 55.0894 172.689 55.2436 172.899 55.2436C173.143 55.2436 174.171 54.5924 174.868 54.0611C174.938 54.1296 175.199 54.4724 175.269 54.541C175.356 54.6609 175.513 54.8495 175.826 54.8495C176.245 54.8495 176.628 54.4381 176.628 54.0268C176.628 53.6669 176.384 53.5126 175.948 53.2041C176.628 52.6043 176.802 52.4329 176.802 52.0901C176.802 51.6616 176.367 51.3188 175.966 51.3188C175.704 51.3188 175.478 51.4388 175.356 51.6102C175.286 51.7302 174.92 52.33 174.816 52.4672C174.519 52.2958 173.787 51.8844 173.578 51.8844C173.334 51.8844 173.177 52.1072 173.177 52.2786C173.177 52.3472 173.212 52.4672 173.317 52.57C173.404 52.6385 174.101 53.2555 174.119 53.2727L174.136 53.2898Z" fill="white"/>
<path d="M70.0559 44.6863C69.4285 35.5513 41.2819 31.1295 0.5 67.4982H9.12695C35.7398 37.4366 73.7507 34.3173 67.8948 50.2393C67.8948 50.2393 80.0771 32.8948 99.7361 39.3733C99.8755 39.4247 99.9975 39.3733 100.032 39.3047C100.137 39.1162 99.8581 39.0134 99.8581 39.0134C96.6687 37.3337 94.0371 36.5625 90.5166 36.5625C77.6894 36.5625 70.0559 44.6863 70.0559 44.6863Z" fill="white"/>
<path d="M44.9247 52.056C42.9204 52.056 42.7461 54.1469 42.7461 54.1469L41.3693 61.2596L40.2888 59.5285L36.3674 53.2557C35.7226 52.2274 34.5897 51.6104 33.3698 51.6104C31.6967 51.6104 30.2501 52.7929 29.9364 54.4211L27.4268 67.3439H30.7904C32.7946 67.3439 32.9689 65.2529 32.9689 65.2529L34.3457 58.1403L35.4263 59.8713L39.3476 66.1441C39.9925 67.1725 41.1253 67.7895 42.3453 67.7895C44.0184 67.7895 45.4649 66.6069 45.7786 64.9787L48.2883 52.056H44.9247Z" fill="white"/>
<path d="M70.457 55.8611L68.6967 64.979C68.6967 64.979 67.9299 67.3441 70.4047 67.3441H73.35L75.5809 55.8611H79.5893C80.4782 55.8611 81.0533 55.5183 81.4367 55.1413C81.7679 54.7985 81.977 54.3529 82.0641 53.8901L82.4301 52.022H55.2945C55.1202 52.022 50.8503 52.3305 49.8917 56.8723C48.8286 61.9111 53.9525 61.7397 53.9525 61.7397H59.2158C60.0175 61.7397 60.6623 61.8597 60.5229 62.5967C60.3835 63.3336 59.7038 63.4879 58.8847 63.4879H50.5888C49.7 63.4879 49.1249 63.8478 48.7415 64.2249C48.4103 64.5676 48.2012 65.0133 48.0966 65.476L47.748 67.3441H60.0872C63.8168 67.3441 64.9845 64.362 65.3157 62.8366C66.4136 57.8149 61.9694 57.8663 61.7777 57.8835H56.0787C55.277 57.8835 54.7019 57.5578 54.8413 56.838C54.9807 56.1182 55.6953 55.8611 56.5493 55.8611H70.457Z" fill="white"/>
<path d="M97.7665 52.1931C96.7905 51.679 95.2916 51.4219 93.27 51.4219C92.5031 51.4219 91.7537 51.4562 91.0392 51.5076C88.5295 51.6618 86.6124 52.1931 85.3053 53.0672C83.9982 53.9413 83.0919 55.2781 82.6214 57.0606L81.9068 59.8714L81.8545 60.1284L81.4188 62.5793C81.3142 63.1792 81.2968 63.7276 81.3665 64.2075C81.75 66.5384 84.0505 67.7038 88.2681 67.7038C88.7387 67.7038 89.1569 67.7038 89.5404 67.6867C89.9238 67.6867 90.3072 67.6353 90.6732 67.601C92.9911 67.3953 94.7688 66.864 96.0062 66.0242C97.2436 65.1844 98.0976 63.8819 98.5856 62.1337C98.6553 61.8423 98.8819 60.8483 98.9167 60.5912H94.7165C94.124 60.5912 93.5837 60.934 93.3746 61.4824C93.2526 61.7909 93.1306 61.928 92.9737 62.2022C92.9737 62.2022 92.1023 63.9504 89.3835 63.8647C88.5818 63.8476 87.571 63.6933 87.083 62.9735C86.7344 62.4593 86.839 61.6538 86.9261 61.0711C86.9958 60.6083 86.961 60.694 87.3095 59.1515C87.5535 58.0718 87.9195 56.9406 88.7735 56.1693C89.5926 55.4324 90.708 55.141 91.806 55.1753C92.3986 55.1753 93.026 55.2781 93.5488 55.5695C93.8451 55.7409 94.0717 55.998 94.1937 56.3065C94.246 56.4264 94.2634 56.5635 94.2808 56.7007C94.2982 57.1977 94.7165 57.5919 95.2394 57.5919H99.3176L99.4047 57.0434C99.579 56.0837 99.5964 55.2781 99.4918 54.6269C99.3176 53.5128 98.725 52.6902 97.749 52.176" fill="white"/>
<path d="M50.1531 71.3882H51.1988C51.3034 71.3882 51.3905 71.4739 51.3905 71.5767V72.0737C51.3905 72.1766 51.3034 72.2623 51.1988 72.2623H50.1531C50.0486 72.2623 49.9614 72.1766 49.9614 72.0737V71.5767C49.9614 71.4739 50.0486 71.3882 50.1531 71.3882Z" fill="white"/>
<path d="M102.612 71.3882H103.658C103.762 71.3882 103.85 71.4739 103.85 71.5767V72.0737C103.85 72.1766 103.762 72.2623 103.658 72.2623H102.612C102.508 72.2623 102.42 72.1766 102.42 72.0737V71.5767C102.42 71.4739 102.508 71.3882 102.612 71.3882Z" fill="white"/>
<path d="M286.236 71.3882H287.281C287.386 71.3882 287.473 71.4739 287.473 71.5767V72.0737C287.473 72.1766 287.386 72.2623 287.281 72.2623H286.236C286.131 72.2623 286.044 72.1766 286.044 72.0737V71.5767C286.044 71.4739 286.131 71.3882 286.236 71.3882Z" fill="white"/>
<path d="M77.9156 71.3882H76.8699C76.764 71.3882 76.6782 71.4726 76.6782 71.5767V78.4837C76.6782 78.5878 76.764 78.6722 76.8699 78.6722H77.9156C78.0215 78.6722 78.1073 78.5878 78.1073 78.4837V71.5767C78.1073 71.4726 78.0215 71.3882 77.9156 71.3882Z" fill="white"/>
<path d="M34.2589 71.6804H33.3003C33.1783 71.6804 33.0738 71.7832 33.0738 71.9032V76.8735L29.6404 72.0574C29.4313 71.7832 29.1176 71.6118 28.769 71.6118C28.1765 71.6118 27.6885 71.8518 27.6885 72.4345V78.4331C27.6885 78.5531 27.793 78.6559 27.915 78.6559H28.8736C28.9956 78.6559 29.1002 78.5531 29.1002 78.4331V73.6171L32.5335 78.2788C32.7426 78.5531 33.0564 78.7073 33.4049 78.7073C33.9975 78.7073 34.4855 78.2274 34.4855 77.6447V71.8689C34.4855 71.7489 34.3809 71.6461 34.2589 71.6461V71.6804Z" fill="white"/>
<path d="M41.3347 73.6508C40.899 73.3251 40.2542 73.1709 39.4176 73.1709C38.6856 73.1709 38.0931 73.3251 37.6574 73.6165C37.2739 73.8736 37.0648 74.2164 37.0299 74.6448C37.0299 74.6791 37.0299 74.7477 37.1345 74.7477H38.2151C38.2151 74.7477 38.3371 74.6791 38.3371 74.6448C38.3719 74.4734 38.4765 74.3363 38.6159 74.2335C38.8076 74.0964 39.069 74.0278 39.3827 74.0278C40.3413 74.0278 40.5504 74.5591 40.5504 75.0219V75.5532H39.0342C38.3371 75.5532 37.7794 75.6903 37.3959 75.9817C37.0125 76.2559 36.8208 76.633 36.8208 77.0957C36.8208 77.627 36.9951 78.0212 37.3611 78.3126C37.7271 78.6039 38.2499 78.7582 38.9122 78.7582C39.2607 78.7582 39.557 78.7239 39.7836 78.6382C40.0102 78.5525 40.2367 78.4154 40.4459 78.2269L40.6027 78.0898V78.5182C40.6027 78.5182 40.5853 78.6896 40.8119 78.6896H41.8053C41.8924 78.6896 41.9795 78.6211 41.9795 78.5182V75.0733C41.9795 74.4392 41.7704 73.9764 41.3347 73.6508ZM40.5853 76.7529C40.5853 77.1128 40.4807 77.3871 40.2716 77.5585C40.0624 77.7298 39.7487 77.8327 39.2956 77.8327C38.4068 77.8327 38.2151 77.4042 38.2151 77.0443C38.2151 76.6844 38.4068 76.273 39.313 76.273H40.5679V76.7701L40.5853 76.7529Z" fill="white"/>
<path d="M73.489 73.6508C73.0533 73.3251 72.4085 73.1709 71.5719 73.1709C70.8399 73.1709 70.2474 73.3251 69.8116 73.6165C69.4282 73.8736 69.2191 74.2164 69.1842 74.6448C69.1842 74.6791 69.1842 74.7477 69.2888 74.7477H70.3694C70.3694 74.7477 70.4913 74.6791 70.4913 74.6448C70.5262 74.4734 70.6308 74.3363 70.7702 74.2335C70.9619 74.0964 71.2233 74.0278 71.537 74.0278C72.4956 74.0278 72.7047 74.5591 72.7047 75.0219V75.5532H71.1885C70.4914 75.5532 69.9337 75.6903 69.5502 75.9817C69.1668 76.2559 68.9751 76.633 68.9751 77.0957C68.9751 77.627 69.1494 78.0212 69.5154 78.3126C69.8814 78.6039 70.4042 78.7582 71.0665 78.7582C71.415 78.7582 71.7113 78.7239 71.9379 78.6382C72.1645 78.5525 72.391 78.4154 72.6002 78.2269L72.757 78.0898V78.5182C72.757 78.5182 72.7396 78.6896 72.9662 78.6896H73.9596C74.0467 78.6896 74.1338 78.6211 74.1338 78.5182V75.0733C74.1338 74.4392 73.9247 73.9764 73.489 73.6508ZM72.7396 76.7529C72.7396 77.1128 72.635 77.3871 72.4259 77.5585C72.2167 77.7298 71.903 77.8327 71.4499 77.8327C70.5611 77.8327 70.3694 77.4042 70.3694 77.0443C70.3694 76.6844 70.5611 76.273 71.4673 76.273H72.7222V76.7701L72.7396 76.7529Z" fill="white"/>
<path d="M146.131 73.6508C145.695 73.3251 145.05 73.1709 144.213 73.1709C143.482 73.1709 142.889 73.3251 142.453 73.6165C142.07 73.8736 141.861 74.2164 141.826 74.6448C141.826 74.6791 141.826 74.7477 141.93 74.7477H143.011C143.011 74.7477 143.133 74.6791 143.133 74.6448C143.168 74.4734 143.272 74.3363 143.412 74.2335C143.604 74.0964 143.865 74.0278 144.179 74.0278C145.137 74.0278 145.346 74.5591 145.346 75.0219V75.5532H143.83C143.133 75.5532 142.575 75.6903 142.192 75.9817C141.808 76.2559 141.617 76.633 141.617 77.0957C141.617 77.627 141.791 78.0212 142.157 78.3126C142.523 78.6039 143.046 78.7582 143.708 78.7582C144.057 78.7582 144.353 78.7239 144.579 78.6382C144.806 78.5525 145.033 78.4154 145.242 78.2269L145.399 78.0898V78.5182C145.399 78.5182 145.381 78.6896 145.608 78.6896H146.601C146.688 78.6896 146.775 78.6211 146.775 78.5182V75.0733C146.775 74.4392 146.566 73.9764 146.131 73.6508ZM145.381 76.7529C145.381 77.1128 145.277 77.3871 145.067 77.5585C144.858 77.7298 144.545 77.8327 144.091 77.8327C143.203 77.8327 143.011 77.4042 143.011 77.0443C143.011 76.6844 143.203 76.273 144.109 76.273H145.364V76.7701L145.381 76.7529Z" fill="white"/>
<path d="M56.5145 73.1543C55.6953 73.1543 55.0331 73.3428 54.5799 73.7027C54.1094 74.0627 53.8828 74.6454 53.8828 75.3995V76.445C53.8828 77.2162 54.1094 77.7989 54.5799 78.1589C55.0505 78.5188 55.6953 78.7073 56.5145 78.7073C57.3336 78.7073 57.9784 78.5188 58.4316 78.1589C58.8847 77.7989 59.1287 77.2162 59.1287 76.445V75.3995C59.1287 74.6282 58.9021 74.0627 58.4316 73.7027C57.961 73.3428 57.3162 73.1543 56.5145 73.1543ZM57.717 76.4621C57.717 77.2848 57.2987 77.7304 56.5145 77.7304C55.7302 77.7304 55.2771 77.2848 55.2771 76.4621V75.4509C55.2771 74.6282 55.6953 74.1826 56.5145 74.1826C57.3336 74.1826 57.717 74.6282 57.717 75.4509V76.4621Z" fill="white"/>
<path d="M64.6183 73.1543C64.322 73.1543 64.0432 73.2057 63.7817 73.2914C63.5203 73.3771 63.2763 73.5142 63.102 73.7027L62.9452 73.857V73.3771C62.9452 73.2057 62.8058 73.2229 62.8058 73.2229H61.7078C61.7078 73.2229 61.5684 73.2743 61.5684 73.36V78.5359C61.5684 78.5359 61.6206 78.673 61.7078 78.673H62.858C62.858 78.673 62.9975 78.6216 62.9975 78.5359V75.2452C62.9975 74.9025 63.102 74.6282 63.3286 74.4397C63.5552 74.2512 63.834 74.1655 64.1652 74.1655C64.4963 74.1655 64.7926 74.2683 64.9843 74.4569C65.1934 74.6454 65.298 74.9196 65.298 75.2624V78.5531C65.298 78.5531 65.3503 78.6902 65.4374 78.6902H66.5877C66.5877 78.6902 66.7271 78.6387 66.7271 78.5531V75.1081C66.7271 74.5083 66.5528 74.0284 66.1868 73.6856C65.8208 73.3428 65.3154 73.1714 64.6531 73.1714L64.6183 73.1543Z" fill="white"/>
<path d="M152.265 73.1543C151.968 73.1543 151.69 73.2057 151.428 73.2914C151.167 73.3771 150.923 73.5142 150.749 73.7027L150.592 73.857V73.3771C150.592 73.2057 150.452 73.2229 150.452 73.2229H149.354C149.354 73.2229 149.215 73.2743 149.215 73.36V78.5359C149.215 78.5359 149.267 78.673 149.354 78.673H150.505C150.505 78.673 150.644 78.6216 150.644 78.5359V75.2452C150.644 74.9025 150.749 74.6282 150.975 74.4397C151.202 74.2512 151.481 74.1655 151.812 74.1655C152.143 74.1655 152.439 74.2683 152.631 74.4569C152.84 74.6454 152.944 74.9196 152.944 75.2624V78.5531C152.944 78.5531 152.997 78.6902 153.084 78.6902H154.234C154.234 78.6902 154.374 78.6387 154.374 78.5531V75.1081C154.374 74.5083 154.199 74.0284 153.833 73.6856C153.467 73.3428 152.962 73.1714 152.3 73.1714L152.265 73.1543Z" fill="white"/>
<path d="M203.382 73.1543C203.086 73.1543 202.807 73.2057 202.545 73.2914C202.284 73.3771 202.04 73.5142 201.866 73.7027L201.709 73.857V73.3771C201.709 73.2057 201.569 73.2229 201.569 73.2229H200.471C200.471 73.2229 200.332 73.2743 200.332 73.36V78.5359C200.332 78.5359 200.384 78.673 200.471 78.673H201.622C201.622 78.673 201.761 78.6216 201.761 78.5359V75.2452C201.761 74.9025 201.866 74.6282 202.092 74.4397C202.319 74.2512 202.598 74.1655 202.929 74.1655C203.26 74.1655 203.556 74.2683 203.748 74.4569C203.957 74.6454 204.062 74.9196 204.062 75.2624V78.5531C204.062 78.5531 204.114 78.6902 204.201 78.6902H205.351C205.351 78.6902 205.491 78.6387 205.491 78.5531V75.1081C205.491 74.5083 205.316 74.0284 204.95 73.6856C204.584 73.3428 204.079 73.1714 203.417 73.1714L203.382 73.1543Z" fill="white"/>
<path d="M273.861 73.1543C273.565 73.1543 273.286 73.2057 273.025 73.2914C272.763 73.3771 272.519 73.5142 272.345 73.7027L272.188 73.857V73.3771C272.188 73.2057 272.049 73.2229 272.049 73.2229H270.951C270.951 73.2229 270.812 73.2743 270.812 73.36V78.5359C270.812 78.5359 270.864 78.673 270.951 78.673H272.101C272.101 78.673 272.241 78.6216 272.241 78.5359V75.2452C272.241 74.9025 272.345 74.6282 272.572 74.4397C272.798 74.2512 273.077 74.1655 273.408 74.1655C273.739 74.1655 274.036 74.2683 274.227 74.4569C274.437 74.6454 274.541 74.9196 274.541 75.2624V78.5531C274.541 78.5531 274.593 78.6902 274.681 78.6902H275.831C275.831 78.6902 275.97 78.6387 275.97 78.5531V75.1081C275.97 74.5083 275.796 74.0284 275.43 73.6856C275.064 73.3428 274.559 73.1714 273.896 73.1714L273.861 73.1543Z" fill="white"/>
<path d="M116.956 73.1543C116.66 73.1543 116.381 73.2057 116.12 73.2914C115.858 73.3771 115.614 73.5142 115.44 73.7027L115.283 73.857V73.3771C115.283 73.2057 115.144 73.2229 115.144 73.2229H114.046C114.046 73.2229 113.906 73.2743 113.906 73.36V78.5359C113.906 78.5359 113.959 78.673 114.046 78.673H115.196C115.196 78.673 115.335 78.6216 115.335 78.5359V75.2452C115.335 74.9025 115.44 74.6282 115.666 74.4397C115.893 74.2512 116.172 74.1655 116.503 74.1655C116.834 74.1655 117.13 74.2683 117.322 74.4569C117.531 74.6454 117.636 74.9196 117.636 75.2624V78.5531C117.636 78.5531 117.688 78.6902 117.775 78.6902H118.926C118.926 78.6902 119.065 78.6387 119.065 78.5531V75.1081C119.065 74.5083 118.891 74.0284 118.525 73.6856C118.159 73.3428 117.653 73.1714 116.991 73.1714L116.956 73.1543Z" fill="white"/>
<path d="M93.1312 75.3482C93.0092 75.1939 92.8872 75.0568 92.7304 74.954C92.5735 74.8512 92.4167 74.7483 92.2598 74.6798C92.0855 74.6112 91.9287 74.5598 91.7544 74.5255C91.5801 74.4912 91.4233 74.4741 91.2664 74.4741H89.8024C89.541 74.4741 89.3319 74.4056 89.175 74.2513C89.0182 74.1142 88.9485 73.9085 88.9485 73.6686C88.9485 73.4286 89.0182 73.223 89.175 73.0859C89.3319 72.9316 89.541 72.8631 89.8024 72.8631H92.6955C92.8349 72.8631 92.8175 72.7259 92.8175 72.7259V71.6976C92.8175 71.6976 92.8175 71.5776 92.6955 71.5776H89.8024C89.5759 71.5776 89.3319 71.6119 89.0705 71.6976C88.809 71.7662 88.565 71.8861 88.3385 72.0575C88.1119 72.2289 87.9202 72.4346 87.7808 72.7088C87.6239 72.983 87.5542 73.3087 87.5542 73.6857C87.5542 74.0628 87.6239 74.4056 87.7808 74.6626C87.9376 74.9369 88.1119 75.1425 88.3385 75.3139C88.565 75.4853 88.809 75.6053 89.0705 75.6738C89.3319 75.7424 89.5759 75.7938 89.8024 75.7938H91.2664C91.3884 75.7938 91.5104 75.8109 91.615 75.8452C91.7195 75.8795 91.8067 75.9481 91.8938 76.0166C91.9635 76.0852 92.0332 76.1709 92.0681 76.2737C92.103 76.3765 92.1204 76.4794 92.1204 76.5993C92.1204 76.8393 92.0507 77.0449 91.8938 77.1821C91.737 77.3192 91.5278 77.4049 91.2664 77.4049H87.8156C87.6065 77.4049 87.6239 77.6277 87.6239 77.6277V78.4846C87.6239 78.4846 87.6413 78.6903 87.8156 78.6903H91.2664C91.4233 78.6903 91.5801 78.6903 91.7544 78.6389C91.9287 78.6046 92.0855 78.5532 92.2598 78.4846C92.4341 78.4161 92.5909 78.3304 92.7478 78.2104C92.9047 78.1076 93.0441 77.9704 93.1486 77.8162C93.2706 77.6619 93.3578 77.4734 93.4275 77.2849C93.4972 77.0792 93.5321 76.8564 93.5321 76.5993C93.5321 76.3422 93.4972 76.1194 93.4275 75.9138C93.3578 75.7081 93.2706 75.5367 93.1486 75.3825L93.1312 75.3482Z" fill="white"/>
<path d="M97.9582 74.1646C98.3067 74.1646 98.603 74.2503 98.8122 74.4045C98.9864 74.5416 99.091 74.713 99.1259 74.9187C99.1259 75.0901 99.2827 75.0729 99.2827 75.0729H100.363C100.363 75.0729 100.485 75.0729 100.485 74.9701C100.468 74.4045 100.241 73.976 99.823 73.6504C99.3699 73.3076 98.7424 73.1362 97.9407 73.1362C97.139 73.1362 96.4768 73.3248 96.0062 73.6847C95.5531 74.0446 95.3091 74.6273 95.3091 75.3814V76.4269C95.3091 77.1981 95.5357 77.7809 96.0062 78.1408C96.4768 78.5007 97.1216 78.6892 97.9407 78.6892C98.7599 78.6892 99.3699 78.5178 99.823 78.1751C100.224 77.8666 100.45 77.4552 100.485 76.9411C100.485 76.8896 100.485 76.804 100.363 76.804H99.2827C99.1607 76.804 99.1433 76.8725 99.1433 76.9068C99.1084 77.1296 99.0039 77.3181 98.8296 77.4552C98.6204 77.6095 98.3416 77.6952 97.9756 77.6952C97.5748 77.6952 97.2785 77.5923 97.0519 77.4038C96.8253 77.1981 96.7208 76.8725 96.7208 76.4269V75.4157C96.7208 74.593 97.1565 74.1474 97.9756 74.1474L97.9582 74.1646Z" fill="white"/>
<path d="M124.135 74.1646C124.484 74.1646 124.78 74.2503 124.989 74.4045C125.164 74.5416 125.268 74.713 125.303 74.9187C125.303 75.0901 125.46 75.0729 125.46 75.0729H126.541C126.541 75.0729 126.662 75.0729 126.662 74.9701C126.645 74.4045 126.418 73.976 126 73.6504C125.547 73.3076 124.92 73.1362 124.118 73.1362C123.316 73.1362 122.654 73.3248 122.183 73.6847C121.73 74.0446 121.486 74.6273 121.486 75.3814V76.4269C121.486 77.1981 121.713 77.7809 122.183 78.1408C122.654 78.5007 123.299 78.6892 124.118 78.6892C124.937 78.6892 125.547 78.5178 126 78.1751C126.401 77.8666 126.628 77.4552 126.662 76.9411C126.662 76.8896 126.663 76.804 126.541 76.804H125.46C125.338 76.804 125.321 76.8725 125.321 76.9068C125.286 77.1296 125.181 77.3181 125.007 77.4552C124.798 77.6095 124.519 77.6952 124.153 77.6952C123.752 77.6952 123.456 77.5923 123.229 77.4038C123.003 77.1981 122.898 76.8725 122.898 76.4269V75.4157C122.898 74.593 123.334 74.1474 124.153 74.1474L124.135 74.1646Z" fill="white"/>
<path d="M187.678 74.1646C188.027 74.1646 188.323 74.2503 188.532 74.4045C188.707 74.5416 188.811 74.713 188.846 74.9187C188.846 75.0901 189.003 75.0729 189.003 75.0729H190.083C190.083 75.0729 190.205 75.0729 190.205 74.9701C190.188 74.4045 189.961 73.976 189.543 73.6504C189.09 73.3076 188.463 73.1362 187.661 73.1362C186.859 73.1362 186.197 73.3248 185.726 73.6847C185.273 74.0446 185.029 74.6273 185.029 75.3814V76.4269C185.029 77.1981 185.256 77.7809 185.726 78.1408C186.197 78.5007 186.842 78.6892 187.661 78.6892C188.48 78.6892 189.09 78.5178 189.543 78.1751C189.944 77.8666 190.171 77.4552 190.205 76.9411C190.205 76.8896 190.205 76.804 190.083 76.804H189.003C188.881 76.804 188.863 76.8725 188.863 76.9068C188.829 77.1296 188.724 77.3181 188.55 77.4552C188.341 77.6095 188.062 77.6952 187.696 77.6952C187.295 77.6952 186.999 77.5923 186.772 77.4038C186.546 77.1981 186.441 76.8725 186.441 76.4269V75.4157C186.441 74.593 186.877 74.1474 187.696 74.1474L187.678 74.1646Z" fill="white"/>
<path d="M281.042 74.1646C281.39 74.1646 281.686 74.2503 281.896 74.4045C282.07 74.5416 282.174 74.713 282.209 74.9187C282.209 75.0901 282.366 75.0729 282.366 75.0729H283.447C283.447 75.0729 283.569 75.0729 283.569 74.9701C283.551 74.4045 283.325 73.976 282.906 73.6504C282.453 73.3076 281.826 73.1362 281.024 73.1362C280.223 73.1362 279.56 73.3248 279.09 73.6847C278.637 74.0446 278.393 74.6273 278.393 75.3814V76.4269C278.393 77.1981 278.619 77.7809 279.09 78.1408C279.56 78.5007 280.205 78.6892 281.024 78.6892C281.843 78.6892 282.453 78.5178 282.906 78.1751C283.307 77.8666 283.534 77.4552 283.569 76.9411C283.569 76.8896 283.569 76.804 283.447 76.804H282.366C282.244 76.804 282.227 76.8725 282.227 76.9068C282.192 77.1296 282.087 77.3181 281.913 77.4552C281.704 77.6095 281.425 77.6952 281.059 77.6952C280.658 77.6952 280.362 77.5923 280.135 77.4038C279.909 77.1981 279.804 76.8725 279.804 76.4269V75.4157C279.804 74.593 280.24 74.1474 281.059 74.1474L281.042 74.1646Z" fill="white"/>
<path d="M108.799 73.1543C107.962 73.1543 107.3 73.36 106.829 73.7713C106.359 74.1655 106.132 74.7825 106.132 75.6052V76.2907C106.132 77.1305 106.376 77.7475 106.864 78.1417C107.352 78.5359 108.032 78.7416 108.869 78.7416C109.705 78.7416 110.298 78.5873 110.751 78.2788C111.169 78.0046 111.378 77.6447 111.413 77.1991C111.413 77.1648 111.413 77.0962 111.308 77.0962H110.158C110.036 77.0962 110.036 77.1477 110.036 77.1648C109.984 77.3362 109.879 77.4733 109.723 77.5761C109.531 77.6961 109.252 77.7647 108.921 77.7647C108.485 77.7647 108.137 77.6618 107.91 77.4733C107.666 77.2676 107.544 76.942 107.544 76.5135V76.2736H111.221C111.221 76.2736 111.483 76.2736 111.483 76.085V75.6223C111.483 74.8168 111.239 74.1998 110.768 73.8056C110.298 73.3942 109.635 73.1886 108.816 73.1886L108.799 73.1543ZM110.054 75.5195H107.544V75.3995C107.544 74.9539 107.649 74.6282 107.875 74.4226C108.102 74.2341 108.415 74.1312 108.816 74.1312C109.635 74.1312 110.054 74.5254 110.054 75.2967V75.5195Z" fill="white"/>
<path d="M131.525 73.1543C130.688 73.1543 130.026 73.36 129.556 73.7713C129.085 74.1655 128.858 74.7825 128.858 75.6052V76.2907C128.858 77.1305 129.102 77.7475 129.59 78.1417C130.078 78.5359 130.758 78.7416 131.595 78.7416C132.431 78.7416 133.024 78.5873 133.477 78.2788C133.895 78.0046 134.104 77.6447 134.139 77.1991C134.139 77.1648 134.139 77.0962 134.035 77.0962H132.884C132.762 77.0962 132.762 77.1477 132.762 77.1648C132.71 77.3362 132.605 77.4733 132.449 77.5761C132.257 77.6961 131.978 77.7647 131.647 77.7647C131.211 77.7647 130.863 77.6618 130.636 77.4733C130.392 77.2676 130.27 76.942 130.27 76.5135V76.2736H133.947C133.947 76.2736 134.209 76.2736 134.209 76.085V75.6223C134.209 74.8168 133.965 74.1998 133.494 73.8056C133.024 73.3942 132.361 73.1886 131.542 73.1886L131.525 73.1543ZM132.762 75.5195H130.253V75.3995C130.253 74.9539 130.357 74.6282 130.584 74.4226C130.81 74.2341 131.124 74.1312 131.525 74.1312C132.344 74.1312 132.762 74.5254 132.762 75.2967V75.5195Z" fill="white"/>
<path d="M180.046 73.1543C179.209 73.1543 178.547 73.36 178.077 73.7713C177.606 74.1655 177.379 74.7825 177.379 75.6052V76.2907C177.379 77.1305 177.623 77.7475 178.111 78.1417C178.599 78.5359 179.279 78.7416 180.116 78.7416C180.952 78.7416 181.545 78.5873 181.998 78.2788C182.416 78.0046 182.625 77.6447 182.66 77.1991C182.66 77.1648 182.66 77.0962 182.556 77.0962H181.405C181.283 77.0962 181.283 77.1477 181.283 77.1648C181.231 77.3362 181.126 77.4733 180.97 77.5761C180.778 77.6961 180.499 77.7647 180.168 77.7647C179.732 77.7647 179.384 77.6618 179.157 77.4733C178.913 77.2676 178.791 76.942 178.791 76.5135V76.2736H182.468C182.468 76.2736 182.73 76.2736 182.73 76.085V75.6223C182.73 74.8168 182.486 74.1998 182.015 73.8056C181.545 73.3942 180.882 73.1886 180.063 73.1886L180.046 73.1543ZM181.283 75.5195H178.774V75.3995C178.774 74.9539 178.878 74.6282 179.105 74.4226C179.331 74.2341 179.645 74.1312 180.046 74.1312C180.865 74.1312 181.283 74.5254 181.283 75.2967V75.5195Z" fill="white"/>
<path d="M161.781 71.3882H160.735C160.63 71.3882 160.561 71.4739 160.561 71.5596V73.9419L160.404 73.7534C160.055 73.3592 159.55 73.1535 158.905 73.1535C158.26 73.1535 157.755 73.342 157.371 73.7019C156.988 74.0618 156.779 74.6274 156.779 75.3815V76.4956C156.779 77.2497 156.988 77.8153 157.371 78.1752C157.772 78.5351 158.295 78.7236 158.905 78.7236C159.55 78.7236 160.073 78.5351 160.421 78.1752L160.578 78.0038V78.5008C160.578 78.5008 160.578 78.6722 160.752 78.6722H161.763C161.868 78.6722 161.955 78.5865 161.955 78.4837V71.5767C161.955 71.4739 161.868 71.4053 161.781 71.4053V71.3882ZM160.561 76.4613C160.561 76.8726 160.456 77.1811 160.247 77.4039C160.038 77.6267 159.724 77.7296 159.341 77.7296C158.835 77.7296 158.208 77.5068 158.208 76.4613V75.4501C158.208 74.6274 158.609 74.1818 159.376 74.1818C159.742 74.1818 160.038 74.3018 160.247 74.5075C160.456 74.7303 160.561 75.0388 160.561 75.4501V76.4613Z" fill="white"/>
<path d="M216.819 71.3882H215.738C215.642 71.3882 215.564 71.4649 215.564 71.5596V78.5008C215.564 78.5955 215.642 78.6722 215.738 78.6722H216.819C216.915 78.6722 216.993 78.5955 216.993 78.5008V71.5596C216.993 71.4649 216.915 71.3882 216.819 71.3882Z" fill="white"/>
<path d="M291.22 71.3882H290.14C290.043 71.3882 289.965 71.4649 289.965 71.5596V78.5008C289.965 78.5955 290.043 78.6722 290.14 78.6722H291.22C291.316 78.6722 291.394 78.5955 291.394 78.5008V71.5596C291.394 71.4649 291.316 71.3882 291.22 71.3882Z" fill="white"/>
<path d="M195.679 73.1535C195.383 73.1535 195.104 73.2049 194.86 73.2906C194.598 73.3763 194.389 73.5134 194.197 73.6848L194.041 73.839V71.5082C194.041 71.5082 193.988 71.3882 193.919 71.3882H192.751C192.751 71.3882 192.629 71.4396 192.629 71.5082V78.5351C192.629 78.5351 192.681 78.6551 192.751 78.6551H193.919C193.919 78.6551 194.041 78.6037 194.041 78.5351V75.2444C194.041 74.9017 194.145 74.6274 194.372 74.4389C194.598 74.2504 194.877 74.1647 195.208 74.1647C195.539 74.1647 195.836 74.2504 196.027 74.4389C196.237 74.6274 196.341 74.9017 196.341 75.2444V78.5351C196.341 78.5351 196.393 78.6551 196.463 78.6551H197.631C197.631 78.6551 197.753 78.6037 197.753 78.5351V75.0902C197.753 74.4903 197.579 74.0104 197.213 73.6677C196.847 73.3249 196.341 73.1535 195.679 73.1535Z" fill="white"/>
<path d="M210.527 73.1543C209.708 73.1543 209.063 73.3428 208.593 73.7027C208.139 74.0627 207.896 74.6454 207.896 75.3995V76.445C207.896 77.2162 208.122 77.7989 208.593 78.1589C209.063 78.5188 209.708 78.7073 210.527 78.7073C211.346 78.7073 211.991 78.5188 212.444 78.1589C212.897 77.7989 213.141 77.2162 213.141 76.445V75.3995C213.141 74.6282 212.915 74.0627 212.444 73.7027C211.974 73.3428 211.329 73.1543 210.527 73.1543ZM211.73 76.4621C211.73 77.2848 211.311 77.7304 210.527 77.7304C209.743 77.7304 209.29 77.2848 209.29 76.4621V75.4509C209.29 74.6282 209.708 74.1826 210.527 74.1826C211.346 74.1826 211.73 74.6282 211.73 75.4509V76.4621Z" fill="white"/>
<path d="M222.152 73.1543C221.333 73.1543 220.688 73.3428 220.217 73.7027C219.764 74.0627 219.52 74.6454 219.52 75.3995V76.445C219.52 77.2162 219.747 77.7989 220.217 78.1589C220.688 78.5188 221.333 78.7073 222.152 78.7073C222.971 78.7073 223.616 78.5188 224.069 78.1589C224.522 77.7989 224.766 77.2162 224.766 76.445V75.3995C224.766 74.6282 224.539 74.0627 224.069 73.7027C223.598 73.3428 222.953 73.1543 222.152 73.1543ZM223.354 76.4621C223.354 77.2848 222.936 77.7304 222.152 77.7304C221.367 77.7304 220.914 77.2848 220.914 76.4621V75.4509C220.914 74.6282 221.333 74.1826 222.152 74.1826C222.971 74.1826 223.354 74.6282 223.354 75.4509V76.4621Z" fill="white"/>
<path d="M232.086 73.2229H231.023C230.848 73.2229 230.848 73.3771 230.848 73.3771V73.9427L230.691 73.7542C230.343 73.36 229.837 73.1543 229.193 73.1543C228.548 73.1543 228.042 73.3428 227.659 73.7027C227.276 74.0627 227.066 74.6282 227.066 75.3824V75.9994C227.066 76.7535 227.276 77.319 227.659 77.679C228.06 78.0389 228.583 78.2274 229.193 78.2274C229.837 78.2274 230.36 78.0389 230.709 77.679L230.866 77.5076V78.4331C230.866 79.1701 230.447 79.5642 229.681 79.5642C229.367 79.5642 229.106 79.5128 228.896 79.3929C228.757 79.3072 228.652 79.2215 228.583 79.1015C228.565 79.0672 228.53 78.9815 228.374 78.9815H227.293C227.154 78.9815 227.154 79.0844 227.171 79.1358C227.258 79.4957 227.467 79.7871 227.816 80.027C228.234 80.3012 228.827 80.4383 229.593 80.4383C230.43 80.4383 231.075 80.2498 231.545 79.8727C231.999 79.4957 232.243 78.9815 232.243 78.3474V73.4285C232.243 73.4285 232.243 73.2229 232.086 73.2229ZM230.848 75.9651C230.848 76.3764 230.744 76.6849 230.535 76.9077C230.325 77.1305 230.012 77.2334 229.628 77.2334C229.123 77.2334 228.496 77.0105 228.496 75.9651V75.4509C228.496 74.6282 228.896 74.1826 229.663 74.1826C230.029 74.1826 230.325 74.3026 230.535 74.5083C230.744 74.7311 230.848 75.0396 230.848 75.4509V75.9651Z" fill="white"/>
<path d="M239.65 73.2222H238.517C238.36 73.2222 238.291 73.4107 238.291 73.4107L236.949 76.9242L235.624 73.3765C235.624 73.3765 235.607 73.2222 235.415 73.2222H234.3C234.09 73.2222 234.16 73.4279 234.16 73.4279L236.321 78.6038L236.286 78.7067C236.199 78.9466 236.095 79.1009 235.938 79.1865C235.798 79.2722 235.589 79.3065 235.31 79.3065H235.084C234.875 79.3065 234.91 79.5122 234.91 79.5122V80.1635C234.91 80.3177 235.049 80.3177 235.049 80.3177H235.38C235.903 80.3177 236.321 80.232 236.617 80.0435C236.914 79.8721 237.158 79.5807 237.315 79.1865L239.72 73.4279C239.72 73.4279 239.842 73.2051 239.667 73.2051L239.65 73.2222Z" fill="white"/>
<path d="M252.424 71.9032C251.867 71.4918 251.1 71.269 250.159 71.269C248.015 71.269 246.969 72.2117 246.969 74.1484V75.8623C246.969 77.799 247.997 78.7416 250.124 78.7416C251.082 78.7416 251.867 78.5359 252.407 78.1246C252.912 77.7475 253.191 77.182 253.226 76.4793C253.226 76.445 253.226 76.3593 253.104 76.3593H251.867C251.762 76.3593 251.745 76.4278 251.745 76.4621C251.727 76.822 251.588 77.0963 251.326 77.3191C251.047 77.5419 250.664 77.6619 250.159 77.6619C249.583 77.6619 249.165 77.5076 248.886 77.2162C248.625 76.9249 248.485 76.4621 248.485 75.828V74.2169C248.485 73.5485 248.625 73.0686 248.869 72.7773C249.13 72.4688 249.549 72.3317 250.124 72.3317C250.629 72.3317 251.03 72.4516 251.309 72.6916C251.553 72.8972 251.71 73.1886 251.727 73.5314C251.727 73.5657 251.727 73.6342 251.884 73.6342H253.121C253.226 73.6342 253.243 73.5485 253.243 73.4971C253.209 72.8115 252.947 72.2802 252.424 71.886V71.9032Z" fill="white"/>
<path d="M258.072 73.1543C257.252 73.1543 256.608 73.3428 256.137 73.7027C255.684 74.0627 255.44 74.6454 255.44 75.3995V76.445C255.44 77.2162 255.666 77.7989 256.137 78.1589C256.608 78.5188 257.252 78.7073 258.072 78.7073C258.891 78.7073 259.536 78.5188 259.989 78.1589C260.442 77.7989 260.686 77.2162 260.686 76.445V75.3995C260.686 74.6282 260.459 74.0627 259.989 73.7027C259.518 73.3428 258.873 73.1543 258.072 73.1543ZM259.274 76.4621C259.274 77.2848 258.856 77.7304 258.072 77.7304C257.287 77.7304 256.834 77.2848 256.834 76.4621V75.4509C256.834 74.6282 257.252 74.1826 258.072 74.1826C258.891 74.1826 259.274 74.6282 259.274 75.4509V76.4621Z" fill="white"/>
<path d="M268.075 73.2227H267.012C266.907 73.2227 266.838 73.3083 266.838 73.394V76.4105C266.838 76.8561 266.768 77.1646 266.611 77.3874C266.454 77.6102 266.141 77.713 265.687 77.713C265.234 77.713 264.921 77.5931 264.764 77.3703C264.607 77.1475 264.537 76.8218 264.537 76.4105V73.394C264.537 73.2912 264.45 73.2227 264.363 73.2227H263.3C263.195 73.2227 263.125 73.3083 263.125 73.394V76.479C263.125 77.9873 263.962 78.7242 265.705 78.7242C266.576 78.7242 267.221 78.5357 267.657 78.1587C268.075 77.7816 268.284 77.216 268.284 76.479V73.394C268.284 73.2912 268.197 73.2227 268.11 73.2227H268.075Z" fill="white"/>
<path d="M51.199 73.2227H50.1707C50.0648 73.2227 49.979 73.3071 49.979 73.4112V78.4843C49.979 78.5884 50.0648 78.6728 50.1707 78.6728H51.199C51.3048 78.6728 51.3907 78.5884 51.3907 78.4843V73.4112C51.3907 73.3071 51.3048 73.2227 51.199 73.2227Z" fill="white"/>
<path d="M102.612 73.2227H103.64C103.745 73.2227 103.832 73.3084 103.832 73.4112V78.4843C103.832 78.5871 103.745 78.6728 103.64 78.6728H102.612C102.508 78.6728 102.42 78.5871 102.42 78.4843V73.4112C102.42 73.3084 102.508 73.2227 102.612 73.2227Z" fill="white"/>
<path d="M287.281 73.2227H286.253C286.147 73.2227 286.061 73.3071 286.061 73.4112V78.4843C286.061 78.5884 286.147 78.6728 286.253 78.6728H287.281C287.387 78.6728 287.473 78.5884 287.473 78.4843V73.4112C287.473 73.3071 287.387 73.2227 287.281 73.2227Z" fill="white"/>
<path d="M47.6085 73.2227H46.4408V71.8173C46.4408 71.8173 46.3886 71.6802 46.3014 71.6802H45.1686C45.1686 71.6802 45.0292 71.7316 45.0292 71.8173V73.2227H44.2275C44.2275 73.2227 44.1055 73.2741 44.1055 73.3427V73.8568C44.1055 73.8568 44.1578 73.9768 44.2275 73.9768H45.0292V77.1303C45.0292 77.6102 45.186 77.9702 45.5346 78.2444C45.8657 78.5186 46.3363 78.6557 46.9288 78.6557H47.4343C47.4343 78.6557 47.5911 78.6728 47.5911 78.4843V77.8673C47.5911 77.7131 47.4343 77.6959 47.4343 77.6959H47.1903C46.5628 77.6959 46.4408 77.336 46.4408 77.0275V73.9597H47.6085C47.6085 73.9597 47.7305 73.9082 47.7305 73.8397V73.3255C47.7305 73.3255 47.6782 73.2055 47.6085 73.2055V73.2227Z" fill="white"/>
<path d="M176.246 71.3882H170.529C170.425 71.3882 170.355 71.4739 170.355 71.5596V72.2623C170.355 72.3651 170.442 72.4337 170.529 72.4337H172.621V78.518C172.621 78.518 172.69 78.6722 172.777 78.6722H173.98C173.98 78.6722 174.137 78.6037 174.137 78.518V72.4337H176.246C176.35 72.4337 176.42 72.348 176.42 72.2623V71.5596C176.42 71.4567 176.333 71.3882 176.246 71.3882Z" fill="white"/>
</g>
<defs>
<clipPath id="clip0_486_1669">
<rect width="293" height="117" fill="white" transform="translate(0.5)"/>
</clipPath>
</defs>
</svg>
