<svg width="218" height="61" viewBox="0 0 218 61" fill="none" xmlns="http://www.w3.org/2000/svg">
<g clip-path="url(#clip0_953_3050)">
<path d="M52.2368 50.9691C35.0435 69.2618 3.30359 59.841 0.237285 34.5971C-2.92028 8.65811 25.9724 -9.21384 47.4183 6.22518C61.819 16.5788 64.575 37.8349 52.2368 50.9691ZM47.7651 10.1764C31.9772 -3.92726 6.7897 5.4203 3.30359 26.0362C-0.310271 47.4386 21.2269 63.9935 40.9936 55.3593C59.282 47.3837 62.5856 23.402 47.7651 10.1764Z" fill="white"/>
<path d="M15.8976 15.0976C15.8976 15.0976 16.0436 14.9512 16.1166 15.0244L29.2032 21.7561L29.258 35.0915C29.4222 36.0976 30.6269 36.061 30.8276 35.1281L30.7911 21.7378L44.0785 15.061V25.3963H46.8527C46.8527 25.3963 46.9805 25.0854 47.1083 24.9573C47.7471 24.2805 48.7692 24.2988 49.4628 24.8842C51.0689 26.2744 49.3898 28.7988 47.3455 27.6646C47.2543 27.6098 47.0535 27.3902 47.0353 27.3902H44.0785V30.4634H46.8162C46.8162 30.4634 47.236 30.0244 47.3273 29.9512C48.8604 28.8171 50.7769 30.6098 49.846 32.3293C49.408 33.1524 48.1304 33.372 47.3638 32.8415C47.2543 32.7683 46.9258 32.3659 46.8892 32.3659H44.0785V35.2927H46.9623C46.9623 35.2927 47.2908 34.9817 47.4368 34.8902C48.7144 34.1951 50.1928 35.0732 50.0651 36.5732C49.9556 37.9451 48.2946 38.5488 47.2543 37.7073C47.1265 37.5976 46.8527 37.1951 46.8162 37.1951H44.0785V40.122H47.0353C47.0353 40.122 47.4916 39.7744 47.7106 39.7012C49.2255 39.2256 50.5944 40.7073 49.8825 42.1707C49.1707 43.6342 47.309 43.3598 46.725 42.0244C45.5569 42.1159 44.2245 41.9146 43.0746 42.0244C42.162 42.1159 41.9247 43.2866 40.8114 43.4146H19.2925C18.2339 43.5244 17.668 42.1159 16.8102 42.0244C15.7516 41.8963 14.4557 42.1159 13.3606 42.0244C13.1781 42.061 13.0868 42.4634 12.8861 42.6463C12.3568 43.1585 11.5719 43.2866 10.9149 42.9207C9.05318 41.9146 10.057 39.1159 12.2107 39.6463C12.5028 39.7195 12.9408 40.1037 12.9956 40.1037H15.8794V37.1768H13.2146C13.2146 37.1768 12.6305 37.9634 11.9552 38.0549C9.10794 38.4573 9.43647 33.8476 12.229 34.7256C12.5393 34.8354 13.0138 35.2744 13.0686 35.2744H15.8794V32.3476H13.1416C13.1416 32.3476 12.7583 32.75 12.667 32.8232C11.8822 33.372 10.7506 33.1524 10.2396 32.3293C9.25395 30.7561 10.8601 28.9085 12.521 29.8232C12.7218 29.9329 13.1598 30.4451 13.2146 30.4451H15.8794V27.372H12.9956C12.9956 27.372 12.4845 27.8659 11.9552 27.939C9.32696 28.2866 9.30871 24.0793 11.9552 24.4451C12.6853 24.5366 13.1233 25.3963 13.2146 25.3963H15.8794V15.0976H15.8976Z" fill="white"/>
<path d="M37.6902 46.6703V50.6032C37.6902 50.6032 38.2925 51.1703 38.3838 51.6642C38.9679 54.4264 34.3136 54.4812 34.989 51.5727C35.1167 51.0605 35.7008 50.5849 35.7008 50.53V46.6703H31.0466C31.0466 46.6703 30.937 46.7617 30.9735 46.8166L31.0101 51.2617C31.1561 51.6459 31.5394 51.9386 31.6489 52.3776C31.9957 53.6947 30.791 54.9934 29.4586 54.5727C28.3635 54.2434 27.9072 52.963 28.5096 51.9751C28.6008 51.8288 28.9658 51.5178 28.9658 51.4812V46.6703H24.2751V50.5666C24.2751 50.5666 24.4211 50.6032 24.5306 50.713C26.0821 52.3044 24.1109 54.6825 22.3404 53.4934C21.6834 53.0544 21.4096 52.1947 21.6651 51.4447C21.7746 51.1337 22.2857 50.6581 22.2857 50.6032V46.6703H19.3289C19.1099 46.6703 18.325 46.341 18.0877 46.213C17.0109 45.6459 16.3173 44.7678 15.8428 43.652H16.9744C16.9744 43.652 17.2664 43.963 17.3394 44.0178C17.887 44.4386 18.1973 44.6764 18.8908 44.8044C26.0273 45.0239 33.182 44.841 40.3185 44.8959C40.9573 44.841 41.5596 44.713 42.1072 44.3288C42.3627 44.1459 42.7095 43.652 42.9103 43.5971C43.0928 43.5422 44.0054 43.5056 44.0054 43.6703C43.4396 44.8959 42.7642 45.7556 41.4866 46.2861C41.3406 46.3593 40.5558 46.6337 40.4463 46.6337H37.6355L37.6902 46.6703Z" fill="white"/>
<path d="M29.258 6.64622C36.1572 5.82305 36.1937 16.0669 29.7508 15.7926C24.2387 15.5548 24.0745 7.26817 29.258 6.64622Z" fill="white"/>
<path d="M19.6026 13.6157C19.8946 13.5608 20.2231 13.6157 20.5334 13.6157C23.7457 15.0791 26.7938 16.945 29.9879 18.4633C30.1886 18.445 30.3529 18.3352 30.5354 18.262C32.8534 17.2194 35.2079 15.7559 37.4894 14.6035C38.7122 13.9816 39.9534 13.0486 41.2858 14.0181C41.4865 14.1645 41.8151 14.4206 41.5413 14.6218C41.304 14.8047 40.6469 15.0974 40.3367 15.262C38.2742 16.3596 36.157 17.3657 34.058 18.445C32.7074 19.1401 31.3933 19.9633 29.9696 20.512C26.082 18.6096 22.2673 16.5608 18.4344 14.5303C18.3067 14.4389 18.3979 14.4572 18.4344 14.384C18.5805 14.1096 19.274 13.6889 19.5843 13.634L19.6026 13.6157Z" fill="white"/>
<path d="M85.6744 30.0056V39.7008H83.6484V31.7983H79.4505V39.8288H77.4976V30.0056H85.6926H85.6744ZM84.5063 37.3044V39.0788H78.4649V37.3044H84.5063ZM84.4698 33.6642V35.2556H78.4832V33.6642H84.4698ZM92.6466 20.2739V28.7434H80.3996V20.2739H92.6466ZM82.4073 23.6764H90.5476V21.9934H82.4073V23.6764ZM82.4073 27.0056H90.5476V25.3044H82.4073V27.0056ZM95.6946 30.0056V39.7008H93.6139V31.7983H89.3248V39.8288H87.3353V30.0056H95.6946ZM94.5448 37.3044V39.0788H88.3939V37.3044H94.5448ZM94.563 33.6642V35.2556H88.4122V33.6642H94.563Z" fill="white"/>
<path d="M104.383 26.3103V29.0908C104.383 31.9261 104.036 36.0969 102.302 38.9688C101.919 38.6761 101.024 38.292 100.513 38.1274C102.247 35.4017 102.448 31.6335 102.448 29.0908V26.3103H104.383ZM108.781 20.2737C107.157 22.9078 104.364 25.1944 101.645 26.6396C101.444 26.1822 100.878 25.1578 100.531 24.6822C103.014 23.5481 105.514 21.7188 106.883 19.542L108.781 20.2737ZM111.793 26.3103V32.9871H103.561V31.5054H109.913V27.792H103.616V26.3103H111.793ZM110.971 28.981V30.2798H103.634V28.981H110.971ZM112.304 33.8652V39.6457H110.479V35.3286H105.715V39.7005H103.963V33.8469H112.304V33.8652ZM111.264 37.3225V38.8957H104.766V37.3225H111.264ZM109.621 24.0969V25.3774H105.058V24.0969H109.621ZM107.321 20.2005C109.128 21.2615 111.811 22.8347 113.107 23.8225L112.012 25.5603C110.734 24.5176 108.142 22.8347 106.281 21.7005L107.321 20.2005ZM115.899 21.8286V34.0298H113.947V21.8286H115.899ZM120.024 19.5603V37.231C120.024 38.42 119.769 39.0237 119.057 39.3713C118.345 39.7188 117.195 39.7737 115.407 39.7737C115.315 39.2066 115.042 38.292 114.75 37.7066C116.009 37.7432 117.159 37.7432 117.524 37.7249C117.889 37.7249 118.035 37.5969 118.035 37.231V19.5786H120.024V19.5603Z" fill="white"/>
<path d="M136.196 19.5239C136.086 23.6947 135.922 34.6154 126.686 39.7739C126.321 39.2251 125.646 38.5666 124.971 38.1093C134.005 33.4081 133.768 23.0544 133.841 19.5239H136.196ZM145.431 37.8898C144.81 38.3654 144.208 39.0971 143.916 39.6642C135.119 35.5117 134.297 24.463 133.987 22.4325L135.977 22.213C136.159 23.8593 136.962 34.1032 145.449 37.8898H145.431Z" fill="white"/>
<path d="M166.183 24.8105C163.464 32.8227 158.444 37.3227 150.45 39.7922C150.213 39.2983 149.574 38.3288 149.172 37.8349C156.948 35.7313 161.675 31.6154 164.029 24.2069L166.165 24.8105H166.183ZM169.45 23.2739V25.3044H149.537V23.2739H169.45ZM169.779 37.7435C169.304 38.2008 168.702 39.0971 168.373 39.6825C160.434 37.5422 155.597 32.3837 152.841 24.9386L154.757 24.3349C157.148 30.9752 162.131 35.8959 169.797 37.7435H169.779ZM159.831 19.2861C160.47 20.3288 161.182 21.7374 161.456 22.652L159.138 23.3837C158.901 22.4874 158.262 21.0239 157.641 19.9447L159.831 19.2861Z" fill="white"/>
<path d="M183.285 23.1643V24.8472H174.141V23.1643H183.285ZM182.354 26.1277V27.7374H175.09V26.1277H182.354ZM182.318 29.0545V30.6643H175.108V29.0545H182.318ZM177.007 32.0362V39.5545H175.236V32.0362H177.007ZM182.373 32.0362V38.5667H176.131V36.8655H180.566V33.7374H176.131V32.0545H182.373V32.0362ZM178.266 19.3777C178.887 20.274 179.562 21.463 179.927 22.2496L178.266 23.1825C177.937 22.3594 177.244 21.0789 176.66 20.1643L178.266 19.3594V19.3777ZM193.798 26.9508V28.9996H183.231V26.9508H193.798ZM189.473 19.8716V39.8289H187.337V19.8716H189.473Z" fill="white"/>
<path d="M218 37.8165V39.2251H198.179V37.8165H218ZM218 29.4934V30.847H198.179V29.4934H218ZM217.891 22.9263V24.1336H198.233V22.9263H217.891ZM216.467 27.3165V28.5239H199.821V27.3165H216.467ZM215.591 20.8043V26.347H200.424V25.158H213.51V21.9751H200.551V20.7861H215.591V20.8043ZM215.646 31.6885V36.9202H200.697V31.6885H215.646ZM202.705 33.7556H213.51V32.786H202.705V33.7556ZM202.705 35.8226H213.51V34.8165H202.705V35.8226ZM209.02 19.4507V30.097H206.921V19.4507H209.02ZM208.947 32.036V36.4263H207.013V32.036H208.947Z" fill="white"/>
</g>
<defs>
<clipPath id="clip0_953_3050">
<rect width="218" height="60" fill="white" transform="translate(0 0.5)"/>
</clipPath>
</defs>
</svg>
