<svg width="60" height="55" viewBox="0 0 60 55" fill="none" xmlns="http://www.w3.org/2000/svg">
<path d="M17.5001 36.2825C17.2634 36.2825 17.0656 36.202 16.9068 36.0409C16.7479 35.8798 16.6679 35.6814 16.6668 35.4459C16.6656 35.2103 16.7456 35.0125 16.9068 34.8525C17.0679 34.6925 17.2656 34.6131 17.5001 34.6142H42.5001C42.7368 34.6142 42.9345 34.6942 43.0934 34.8542C43.2534 35.0142 43.3334 35.2125 43.3334 35.4492C43.3334 35.6859 43.2534 35.8836 43.0934 36.0425C42.9334 36.2014 42.7356 36.2809 42.5001 36.2809L17.5001 36.2825ZM17.5001 28.3325C17.2634 28.3325 17.0656 28.2525 16.9068 28.0925C16.7479 27.9325 16.6679 27.7342 16.6668 27.4975C16.6656 27.2609 16.7456 27.0631 16.9068 26.9042C17.0679 26.7453 17.2656 26.6659 17.5001 26.6659H42.5001C42.7368 26.6659 42.9345 26.7459 43.0934 26.9059C43.2523 27.0659 43.3323 27.2642 43.3334 27.5009C43.3345 27.7375 43.2545 27.9353 43.0934 28.0942C42.9323 28.2531 42.7345 28.3325 42.5001 28.3325H17.5001ZM17.5001 20.3825C17.2634 20.3825 17.0656 20.3031 16.9068 20.1442C16.7468 19.9842 16.6668 19.7859 16.6668 19.5492C16.6668 19.3125 16.7468 19.1148 16.9068 18.9559C17.0668 18.797 17.2645 18.7175 17.5001 18.7175H42.5001C42.7368 18.7175 42.9345 18.7975 43.0934 18.9575C43.2523 19.1175 43.3323 19.3148 43.3334 19.5492C43.3345 19.7836 43.2545 19.9814 43.0934 20.1425C42.9323 20.3036 42.7345 20.3836 42.5001 20.3825H17.5001Z" fill="white"/>
</svg>
